<svg xmlns="http://www.w3.org/2000/svg" width="511.970" height="167.404" viewBox="0 0 511.970 167.404" fill="none">
  <path d="M 152.011 0 L 152.011 -0.453 L 152.011 -0.453 L 152.011 0 Z M 83.125 51.184 L 83.125 50.73 L 83.125 50.73 L 83.125 51.184 Z M 78.507 55.802 L 78.053 55.802 L 78.053 55.802 L 78.507 55.802 Z M 83.125 60.419 L 83.125 59.965 L 83.125 59.965 L 83.125 60.419 Z M 0 162.786 L -0.453 162.786 L -0.453 162.786 L 0 162.786 Z M 73.696 116.221 L 73.696 116.674 L 73.696 116.674 L 73.696 116.221 Z M 78.314 111.603 L 78.768 111.603 L 78.768 111.603 L 78.314 111.603 Z M 73.696 106.985 L 73.696 106.532 L 73.696 106.532 L 73.696 106.985 Z M 216.057 153.345 L 216.057 153.798 L 216.51 153.798 L 216.51 153.345 L 216.057 153.345 Z M 211.924 153.345 L 211.47 153.345 L 211.47 153.798 L 211.924 153.798 L 211.924 153.345 Z M 211.924 151.795 L 212.377 151.795 L 212.377 150.635 L 211.591 151.487 L 211.924 151.795 Z M 206.99 153.629 L 206.99 154.082 L 206.99 154.082 L 206.99 153.629 Z M 199.629 146.551 L 199.175 146.551 L 199.175 146.551 L 199.629 146.551 Z M 206.99 139.448 L 206.99 138.995 L 206.99 138.995 L 206.99 139.448 Z M 211.924 141.282 L 211.595 141.594 L 212.377 142.42 L 212.377 141.282 L 211.924 141.282 Z M 211.924 134.799 L 211.924 134.345 L 211.47 134.345 L 211.47 134.799 L 211.924 134.799 Z M 216.057 134.799 L 216.51 134.799 L 216.51 134.345 L 216.057 134.345 L 216.057 134.799 Z M 277.856 139.448 L 277.856 138.995 L 277.856 138.995 L 277.856 139.448 Z M 284.753 144.588 L 285.206 144.588 L 285.206 144.588 L 284.753 144.588 Z M 284.753 149.548 L 284.299 149.548 L 284.299 149.548 L 284.753 149.548 Z M 286.51 150.297 L 286.963 150.297 L 286.963 149.736 L 286.415 149.853 L 286.51 150.297 Z M 286.51 153.345 L 286.594 153.79 L 286.963 153.721 L 286.963 153.345 L 286.51 153.345 Z M 281.137 151.847 L 281.536 151.631 L 281.266 151.131 L 280.838 151.505 L 281.137 151.847 Z M 275.532 153.629 L 275.532 154.082 L 275.532 154.082 L 275.532 153.629 Z M 269.772 149.418 L 269.319 149.418 L 269.319 149.418 L 269.772 149.418 Z M 275.325 145.131 L 275.284 144.679 L 275.281 144.679 L 275.325 145.131 Z M 280.75 144.64 L 280.791 145.091 L 281.203 145.054 L 281.203 144.64 L 280.75 144.64 Z M 277.676 142.702 L 277.676 142.249 L 277.676 142.249 L 277.676 142.702 Z M 273.982 144.536 L 273.864 144.974 L 274.257 145.08 L 274.405 144.701 L 273.982 144.536 Z M 270.263 143.529 L 269.834 143.38 L 269.675 143.84 L 270.144 143.967 L 270.263 143.529 Z M 291.801 141.282 L 291.347 141.282 L 291.347 142.42 L 292.13 141.594 L 291.801 141.282 Z M 296.734 139.448 L 296.734 138.995 L 296.734 138.995 L 296.734 139.448 Z M 304.096 146.551 L 304.549 146.551 L 304.549 146.551 L 304.096 146.551 Z M 296.734 153.629 L 296.734 154.082 L 296.734 154.082 L 296.734 153.629 Z M 291.801 151.795 L 292.134 151.487 L 291.347 150.635 L 291.347 151.795 L 291.801 151.795 Z M 291.801 153.345 L 291.801 153.798 L 292.254 153.798 L 292.254 153.345 L 291.801 153.345 Z M 287.668 153.345 L 287.215 153.345 L 287.215 153.798 L 287.668 153.798 L 287.668 153.345 Z M 287.668 134.799 L 287.668 134.345 L 287.215 134.345 L 287.215 134.799 L 287.668 134.799 Z M 291.801 134.799 L 292.254 134.799 L 292.254 134.345 L 291.801 134.345 L 291.801 134.799 Z M 319.539 139.448 L 319.539 138.995 L 319.539 138.995 L 319.539 139.448 Z M 327.262 146.474 L 327.715 146.474 L 327.715 146.474 L 327.262 146.474 Z M 327.262 147.61 L 327.262 148.064 L 327.715 148.064 L 327.715 147.61 L 327.262 147.61 Z M 315.38 147.61 L 315.38 147.157 L 314.788 147.157 L 314.942 147.728 L 315.38 147.61 Z M 319.539 150.349 L 319.539 150.802 L 319.539 150.802 L 319.539 150.349 Z M 323.388 148.204 L 323.542 147.778 L 323.147 147.635 L 322.974 148.018 L 323.388 148.204 Z M 327.029 149.521 L 327.449 149.693 L 327.628 149.256 L 327.184 149.095 L 327.029 149.521 Z M 319.564 153.629 L 319.564 154.082 L 319.564 154.082 L 319.564 153.629 Z M 311.351 146.525 L 310.897 146.525 L 310.897 146.525 L 311.351 146.525 Z M 342.051 139.448 L 342.051 138.995 L 342.051 138.995 L 342.051 139.448 Z M 349.18 141.799 L 349.523 142.095 L 349.804 141.77 L 349.494 141.472 L 349.18 141.799 Z M 347.036 144.278 L 346.73 144.613 L 347.074 144.928 L 347.379 144.575 L 347.036 144.278 Z M 341.845 142.496 L 341.845 142.043 L 341.845 142.043 L 341.845 142.496 Z M 339.158 143.633 L 338.705 143.633 L 338.705 143.633 L 339.158 143.633 Z M 343.007 144.795 L 343.06 144.345 L 343.058 144.344 L 343.007 144.795 Z M 349.542 148.901 L 349.995 148.901 L 349.995 148.901 L 349.542 148.901 Z M 342.077 153.629 L 342.077 154.082 L 342.077 154.082 L 342.077 153.629 Z M 334.328 151.098 L 333.958 150.835 L 333.738 151.145 L 334.005 151.416 L 334.328 151.098 Z M 336.291 148.333 L 336.598 147.999 L 336.219 147.651 L 335.921 148.07 L 336.291 148.333 Z M 342.387 150.555 L 342.387 151.008 L 342.387 151.008 L 342.387 150.555 Z M 345.383 149.341 L 345.836 149.341 L 345.836 149.341 L 345.383 149.341 Z M 341.044 148.075 L 340.987 148.525 L 340.991 148.526 L 341.044 148.075 Z M 335.077 144.098 L 334.624 144.098 L 334.624 144.098 L 335.077 144.098 Z M 414.407 153.345 L 414.407 153.798 L 414.861 153.798 L 414.861 153.345 L 414.407 153.345 Z M 410.274 153.345 L 409.821 153.345 L 409.821 153.798 L 410.274 153.798 L 410.274 153.345 Z M 410.274 151.795 L 410.728 151.795 L 410.728 150.635 L 409.941 151.487 L 410.274 151.795 Z M 405.341 153.629 L 405.341 154.082 L 405.341 154.082 L 405.341 153.629 Z M 397.979 146.551 L 397.526 146.551 L 397.526 146.551 L 397.979 146.551 Z M 405.341 139.448 L 405.341 138.995 L 405.341 138.995 L 405.341 139.448 Z M 410.274 141.282 L 409.945 141.594 L 410.728 142.42 L 410.728 141.282 L 410.274 141.282 Z M 410.274 134.799 L 410.274 134.345 L 409.821 134.345 L 409.821 134.799 L 410.274 134.799 Z M 414.407 134.799 L 414.861 134.799 L 414.861 134.345 L 414.407 134.345 L 414.407 134.799 Z M 424.147 139.448 L 424.147 138.995 L 424.147 138.995 L 424.147 139.448 Z M 431.87 146.474 L 432.324 146.474 L 432.324 146.474 L 431.87 146.474 Z M 431.87 147.61 L 431.87 148.064 L 432.324 148.064 L 432.324 147.61 L 431.87 147.61 Z M 419.988 147.61 L 419.988 147.157 L 419.397 147.157 L 419.55 147.728 L 419.988 147.61 Z M 424.147 150.349 L 424.147 150.802 L 424.147 150.802 L 424.147 150.349 Z M 427.996 148.204 L 428.15 147.778 L 427.755 147.635 L 427.583 148.018 L 427.996 148.204 Z M 431.638 149.521 L 432.057 149.693 L 432.236 149.256 L 431.792 149.095 L 431.638 149.521 Z M 424.173 153.629 L 424.173 154.082 L 424.173 154.082 L 424.173 153.629 Z M 415.959 146.525 L 415.506 146.525 L 415.506 146.525 L 415.959 146.525 Z M 452.336 139.448 L 452.336 138.995 L 452.336 138.995 L 452.336 139.448 Z M 460.06 146.474 L 460.513 146.474 L 460.513 146.474 L 460.06 146.474 Z M 460.06 147.61 L 460.06 148.064 L 460.513 148.064 L 460.513 147.61 L 460.06 147.61 Z M 448.178 147.61 L 448.178 147.157 L 447.586 147.157 L 447.74 147.728 L 448.178 147.61 Z M 452.336 150.349 L 452.336 150.802 L 452.336 150.802 L 452.336 150.349 Z M 456.185 148.204 L 456.339 147.778 L 455.944 147.635 L 455.771 148.018 L 456.185 148.204 Z M 459.827 149.521 L 460.247 149.693 L 460.426 149.256 L 459.981 149.095 L 459.827 149.521 Z M 452.362 153.629 L 452.362 154.082 L 452.362 154.082 L 452.362 153.629 Z M 444.148 146.525 L 443.695 146.525 L 443.695 146.525 L 444.148 146.525 Z M 485.19 139.448 L 485.19 138.995 L 485.19 138.995 L 485.19 139.448 Z M 492.319 141.799 L 492.662 142.095 L 492.944 141.77 L 492.634 141.472 L 492.319 141.799 Z M 490.176 144.278 L 489.869 144.613 L 490.214 144.928 L 490.519 144.575 L 490.176 144.278 Z M 484.983 142.496 L 484.983 142.043 L 484.983 142.043 L 484.983 142.496 Z M 482.297 143.633 L 481.843 143.633 L 481.843 143.633 L 482.297 143.633 Z M 486.146 144.795 L 486.199 144.345 L 486.197 144.344 L 486.146 144.795 Z M 492.681 148.901 L 493.134 148.901 L 493.134 148.901 L 492.681 148.901 Z M 485.216 153.629 L 485.216 154.082 L 485.216 154.082 L 485.216 153.629 Z M 477.467 151.098 L 477.097 150.835 L 476.877 151.145 L 477.144 151.416 L 477.467 151.098 Z M 479.431 148.333 L 479.738 147.999 L 479.359 147.651 L 479.061 148.07 L 479.431 148.333 Z M 485.526 150.555 L 485.526 151.008 L 485.526 151.008 L 485.526 150.555 Z M 488.522 149.341 L 488.976 149.341 L 488.976 149.341 L 488.522 149.341 Z M 484.183 148.075 L 484.125 148.525 L 484.129 148.526 L 484.183 148.075 Z M 478.216 144.098 L 477.762 144.098 L 477.762 144.098 L 478.216 144.098 Z M 501.531 139.448 L 501.531 138.995 L 501.531 138.995 L 501.531 139.448 Z M 509.254 146.474 L 509.707 146.474 L 509.707 146.474 L 509.254 146.474 Z M 509.254 147.61 L 509.254 148.064 L 509.707 148.064 L 509.707 147.61 L 509.254 147.61 Z M 497.372 147.61 L 497.372 147.157 L 496.781 147.157 L 496.934 147.728 L 497.372 147.61 Z M 501.531 150.349 L 501.531 150.802 L 501.531 150.802 L 501.531 150.349 Z M 505.38 148.204 L 505.534 147.778 L 505.139 147.635 L 504.966 148.018 L 505.38 148.204 Z M 509.021 149.521 L 509.441 149.693 L 509.62 149.256 L 509.176 149.095 L 509.021 149.521 Z M 501.557 153.629 L 501.557 154.082 L 501.557 154.082 L 501.557 153.629 Z M 493.343 146.525 L 492.889 146.525 L 492.889 146.525 L 493.343 146.525 Z M 227.501 139.654 L 227.501 139.201 L 227.501 139.201 L 227.501 139.654 Z M 228.999 139.81 L 229.452 139.81 L 229.452 139.433 L 229.083 139.364 L 228.999 139.81 Z M 228.999 143.813 L 228.924 144.261 L 229.452 144.349 L 229.452 143.813 L 228.999 143.813 Z M 227.346 143.633 L 227.346 143.179 L 227.346 143.179 L 227.346 143.633 Z M 222.464 147.816 L 222.01 147.816 L 222.01 147.816 L 222.464 147.816 Z M 222.464 153.345 L 222.464 153.798 L 222.917 153.798 L 222.917 153.345 L 222.464 153.345 Z M 218.331 153.345 L 217.878 153.345 L 217.878 153.798 L 218.331 153.798 L 218.331 153.345 Z M 218.331 139.732 L 218.331 139.279 L 217.878 139.279 L 217.878 139.732 L 218.331 139.732 Z M 222.464 139.732 L 222.917 139.732 L 222.917 139.279 L 222.464 139.279 L 222.464 139.732 Z M 222.464 142.083 L 222.01 142.083 L 222.01 143.545 L 222.838 142.34 L 222.464 142.083 Z M 234.414 153.345 L 234.414 153.798 L 234.868 153.798 L 234.868 153.345 L 234.414 153.345 Z M 230.281 153.345 L 229.828 153.345 L 229.828 153.798 L 230.281 153.798 L 230.281 153.345 Z M 230.281 139.732 L 230.281 139.279 L 229.828 139.279 L 229.828 139.732 L 230.281 139.732 Z M 234.414 139.732 L 234.868 139.732 L 234.868 139.279 L 234.414 139.279 L 234.414 139.732 Z M 245.8 139.448 L 245.8 138.995 L 245.8 138.995 L 245.8 139.448 Z M 251.741 153.345 L 251.741 153.798 L 252.195 153.798 L 252.195 153.345 L 251.741 153.345 Z M 247.608 153.345 L 247.155 153.345 L 247.155 153.798 L 247.608 153.798 L 247.608 153.345 Z M 244.38 143.116 L 244.38 142.663 L 244.38 142.663 L 244.38 143.116 Z M 240.841 146.835 L 240.387 146.835 L 240.387 146.835 L 240.841 146.835 Z M 240.841 153.345 L 240.841 153.798 L 241.294 153.798 L 241.294 153.345 L 240.841 153.345 Z M 236.708 153.345 L 236.255 153.345 L 236.255 153.798 L 236.708 153.798 L 236.708 153.345 Z M 236.708 139.732 L 236.708 139.279 L 236.255 139.279 L 236.255 139.732 L 236.708 139.732 Z M 240.841 139.732 L 241.294 139.732 L 241.294 139.279 L 240.841 139.279 L 240.841 139.732 Z M 240.841 141.385 L 240.387 141.385 L 240.387 142.517 L 241.169 141.698 L 240.841 141.385 Z M 258.063 145.518 L 257.609 145.518 L 257.609 146.509 L 258.359 145.861 L 258.063 145.518 Z M 264.753 139.732 L 264.753 139.279 L 264.584 139.279 L 264.456 139.389 L 264.753 139.732 Z M 270.332 139.732 L 270.625 140.079 L 271.572 139.279 L 270.332 139.279 L 270.332 139.732 Z M 263.539 145.466 L 263.247 145.119 L 262.892 145.419 L 263.199 145.766 L 263.539 145.466 Z M 270.513 153.345 L 270.513 153.798 L 271.52 153.798 L 270.852 153.044 L 270.513 153.345 Z M 265.398 153.345 L 265.062 153.649 L 265.197 153.798 L 265.398 153.798 L 265.398 153.345 Z M 260.543 147.972 L 260.879 147.668 L 260.586 147.342 L 260.251 147.625 L 260.543 147.972 Z M 258.063 150.064 L 257.77 149.718 L 257.609 149.854 L 257.609 150.064 L 258.063 150.064 Z M 258.063 153.345 L 258.063 153.798 L 258.516 153.798 L 258.516 153.345 L 258.063 153.345 Z M 253.931 153.345 L 253.477 153.345 L 253.477 153.798 L 253.931 153.798 L 253.931 153.345 Z M 253.931 134.799 L 253.931 134.345 L 253.477 134.345 L 253.477 134.799 L 253.931 134.799 Z M 258.063 134.799 L 258.516 134.799 L 258.516 134.345 L 258.063 134.345 L 258.063 134.799 Z M 309.78 153.345 L 309.78 153.798 L 310.234 153.798 L 310.234 153.345 L 309.78 153.345 Z M 305.647 153.345 L 305.194 153.345 L 305.194 153.798 L 305.647 153.798 L 305.647 153.345 Z M 305.647 134.799 L 305.647 134.345 L 305.194 134.345 L 305.194 134.799 L 305.647 134.799 Z M 309.78 134.799 L 310.234 134.799 L 310.234 134.345 L 309.78 134.345 L 309.78 134.799 Z M 355.085 145.518 L 354.632 145.518 L 354.632 146.509 L 355.382 145.861 L 355.085 145.518 Z M 361.775 139.732 L 361.775 139.279 L 361.607 139.279 L 361.479 139.389 L 361.775 139.732 Z M 367.354 139.732 L 367.647 140.079 L 368.595 139.279 L 367.354 139.279 L 367.354 139.732 Z M 360.561 145.466 L 360.268 145.119 L 359.913 145.419 L 360.221 145.766 L 360.561 145.466 Z M 367.535 153.345 L 367.535 153.798 L 368.542 153.798 L 367.875 153.044 L 367.535 153.345 Z M 362.421 153.345 L 362.084 153.649 L 362.22 153.798 L 362.421 153.798 L 362.421 153.345 Z M 357.564 147.972 L 357.901 147.668 L 357.607 147.342 L 357.272 147.625 L 357.564 147.972 Z M 355.085 150.064 L 354.792 149.718 L 354.632 149.854 L 354.632 150.064 L 355.085 150.064 Z M 355.085 153.345 L 355.085 153.798 L 355.538 153.798 L 355.538 153.345 L 355.085 153.345 Z M 350.952 153.345 L 350.499 153.345 L 350.499 153.798 L 350.952 153.798 L 350.952 153.345 Z M 350.952 134.799 L 350.952 134.345 L 350.499 134.345 L 350.499 134.799 L 350.952 134.799 Z M 355.085 134.799 L 355.538 134.799 L 355.538 134.345 L 355.085 134.345 L 355.085 134.799 Z M 372.307 153.345 L 372.307 153.798 L 372.76 153.798 L 372.76 153.345 L 372.307 153.345 Z M 368.174 153.345 L 367.72 153.345 L 367.72 153.798 L 368.174 153.798 L 368.174 153.345 Z M 368.174 139.732 L 368.174 139.279 L 367.72 139.279 L 367.72 139.732 L 368.174 139.732 Z M 372.307 139.732 L 372.76 139.732 L 372.76 139.279 L 372.307 139.279 L 372.307 139.732 Z M 383.692 139.448 L 383.692 138.995 L 383.692 138.995 L 383.692 139.448 Z M 389.634 153.345 L 389.634 153.798 L 390.087 153.798 L 390.087 153.345 L 389.634 153.345 Z M 385.501 153.345 L 385.048 153.345 L 385.048 153.798 L 385.501 153.798 L 385.501 153.345 Z M 382.271 143.116 L 382.271 142.663 L 382.271 142.663 L 382.271 143.116 Z M 378.733 146.835 L 378.28 146.835 L 378.28 146.835 L 378.733 146.835 Z M 378.733 153.345 L 378.733 153.798 L 379.187 153.798 L 379.187 153.345 L 378.733 153.345 Z M 374.601 153.345 L 374.147 153.345 L 374.147 153.798 L 374.601 153.798 L 374.601 153.345 Z M 374.601 139.732 L 374.601 139.279 L 374.147 139.279 L 374.147 139.732 L 374.601 139.732 Z M 378.733 139.732 L 379.187 139.732 L 379.187 139.279 L 378.733 139.279 L 378.733 139.732 Z M 378.733 141.385 L 378.28 141.385 L 378.28 142.517 L 379.062 141.698 L 378.733 141.385 Z M 441.613 134.515 L 441.613 134.061 L 441.613 134.061 L 441.613 134.515 Z M 445.022 135.005 L 445.47 135.08 L 445.532 134.711 L 445.182 134.58 L 445.022 135.005 Z M 444.48 138.234 L 444.361 138.672 L 444.845 138.804 L 444.928 138.309 L 444.48 138.234 Z M 441.871 137.872 L 441.871 137.419 L 441.871 137.419 L 441.871 137.872 Z M 439.288 139.603 L 438.835 139.602 L 438.835 139.603 L 439.288 139.603 Z M 439.288 139.732 L 438.835 139.732 L 438.835 140.186 L 439.288 140.186 L 439.288 139.732 Z M 444.299 139.732 L 444.752 139.732 L 444.752 139.279 L 444.299 139.279 L 444.299 139.732 Z M 444.299 143.142 L 444.299 143.595 L 444.752 143.595 L 444.752 143.142 L 444.299 143.142 Z M 439.288 143.142 L 439.288 142.688 L 438.835 142.688 L 438.835 143.142 L 439.288 143.142 Z M 439.288 153.345 L 439.288 153.798 L 439.742 153.798 L 439.742 153.345 L 439.288 153.345 Z M 435.207 153.345 L 434.754 153.345 L 434.754 153.798 L 435.207 153.798 L 435.207 153.345 Z M 435.207 143.142 L 435.66 143.142 L 435.66 142.688 L 435.207 142.688 L 435.207 143.142 Z M 432.134 143.142 L 431.68 143.142 L 431.68 143.595 L 432.134 143.595 L 432.134 143.142 Z M 432.134 139.732 L 432.134 139.279 L 431.68 139.279 L 431.68 139.732 L 432.134 139.732 Z M 435.207 139.732 L 435.207 140.186 L 435.66 140.186 L 435.66 139.732 L 435.207 139.732 Z M 435.207 139.525 L 434.754 139.525 L 434.754 139.525 L 435.207 139.525 Z M 470.706 139.448 L 470.706 138.995 L 470.706 138.995 L 470.706 139.448 Z M 476.647 153.345 L 476.647 153.798 L 477.101 153.798 L 477.101 153.345 L 476.647 153.345 Z M 472.515 153.345 L 472.061 153.345 L 472.061 153.798 L 472.515 153.798 L 472.515 153.345 Z M 469.286 143.116 L 469.286 142.663 L 469.286 142.663 L 469.286 143.116 Z M 465.747 146.835 L 465.294 146.835 L 465.294 146.835 L 465.747 146.835 Z M 465.747 153.345 L 465.747 153.798 L 466.201 153.798 L 466.201 153.345 L 465.747 153.345 Z M 461.614 153.345 L 461.161 153.345 L 461.161 153.798 L 461.614 153.798 L 461.614 153.345 Z M 461.614 139.732 L 461.614 139.279 L 461.161 139.279 L 461.161 139.732 L 461.614 139.732 Z M 465.747 139.732 L 466.201 139.732 L 466.201 139.279 L 465.747 139.279 L 465.747 139.732 Z M 465.747 141.385 L 465.294 141.385 L 465.294 142.517 L 466.075 141.698 L 465.747 141.385 Z M 275.92 147.895 L 275.961 148.346 L 275.966 148.346 L 275.92 147.895 Z M 273.775 149.264 L 273.322 149.264 L 273.322 149.264 L 273.775 149.264 Z M 276.281 150.606 L 276.281 151.06 L 276.281 151.06 L 276.281 150.606 Z M 280.75 148.127 L 281.203 148.127 L 281.203 148.127 L 280.75 148.127 Z M 280.75 147.403 L 281.203 147.403 L 281.203 146.901 L 280.704 146.952 L 280.75 147.403 Z M 207.843 142.78 L 207.843 142.327 L 207.843 142.327 L 207.843 142.78 Z M 203.658 146.551 L 203.205 146.551 L 203.205 146.551 L 203.658 146.551 Z M 207.843 150.297 L 207.843 150.75 L 207.843 150.75 L 207.843 150.297 Z M 212.054 146.629 L 212.507 146.629 L 212.507 146.629 L 212.054 146.629 Z M 212.054 146.474 L 212.507 146.474 L 212.507 146.474 L 212.054 146.474 Z M 295.882 142.78 L 295.882 142.327 L 295.882 142.327 L 295.882 142.78 Z M 291.672 146.474 L 291.218 146.474 L 291.218 146.474 L 291.672 146.474 Z M 291.672 146.629 L 291.218 146.629 L 291.218 146.629 L 291.672 146.629 Z M 295.882 150.297 L 295.882 150.75 L 295.882 150.75 L 295.882 150.297 Z M 300.066 146.551 L 300.52 146.551 L 300.52 146.551 L 300.066 146.551 Z M 406.193 142.78 L 406.193 142.327 L 406.193 142.327 L 406.193 142.78 Z M 402.009 146.551 L 401.555 146.551 L 401.555 146.551 L 402.009 146.551 Z M 406.193 150.297 L 406.193 150.75 L 406.193 150.75 L 406.193 150.297 Z M 410.404 146.629 L 410.858 146.629 L 410.858 146.629 L 410.404 146.629 Z M 410.404 146.474 L 410.858 146.474 L 410.858 146.474 L 410.404 146.474 Z M 319.409 142.65 L 319.409 142.197 L 319.409 142.197 L 319.409 142.65 Z M 315.483 145.079 L 315.056 144.927 L 314.841 145.533 L 315.483 145.533 L 315.483 145.079 Z M 323.104 145.079 L 323.104 145.533 L 323.635 145.533 L 323.551 145.008 L 323.104 145.079 Z M 424.018 142.65 L 424.018 142.197 L 424.018 142.197 L 424.018 142.65 Z M 420.092 145.079 L 419.664 144.927 L 419.45 145.533 L 420.092 145.533 L 420.092 145.079 Z M 427.712 145.079 L 427.712 145.533 L 428.243 145.533 L 428.16 145.008 L 427.712 145.079 Z M 452.207 142.65 L 452.207 142.197 L 452.207 142.197 L 452.207 142.65 Z M 448.281 145.079 L 447.854 144.927 L 447.639 145.533 L 448.281 145.533 L 448.281 145.079 Z M 455.9 145.079 L 455.9 145.533 L 456.432 145.533 L 456.348 145.008 L 455.9 145.079 Z M 501.401 142.65 L 501.401 142.197 L 501.401 142.197 L 501.401 142.65 Z M 497.476 145.079 L 497.048 144.927 L 496.833 145.533 L 497.476 145.533 L 497.476 145.079 Z M 505.096 145.079 L 505.096 145.533 L 505.627 145.533 L 505.544 145.008 L 505.096 145.079 Z M 234.466 138.337 L 234.466 138.79 L 234.919 138.79 L 234.919 138.337 L 234.466 138.337 Z M 230.256 138.337 L 229.802 138.337 L 229.802 138.79 L 230.256 138.79 L 230.256 138.337 Z M 230.256 134.799 L 230.256 134.345 L 229.802 134.345 L 229.802 134.799 L 230.256 134.799 Z M 234.466 134.799 L 234.919 134.799 L 234.919 134.345 L 234.466 134.345 L 234.466 134.799 Z M 372.358 138.337 L 372.358 138.79 L 372.812 138.79 L 372.812 138.337 L 372.358 138.337 Z M 368.148 138.337 L 367.695 138.337 L 367.695 138.79 L 368.148 138.79 L 368.148 138.337 Z M 368.148 134.799 L 368.148 134.345 L 367.695 134.345 L 367.695 134.799 L 368.148 134.799 Z M 372.358 134.799 L 372.812 134.799 L 372.812 134.345 L 372.358 134.345 L 372.358 134.799 Z M 230.817 69.073 L 230.817 68.62 L 230.817 68.62 L 230.817 69.073 Z M 252.819 90.304 L 253.273 90.304 L 253.273 90.304 L 252.819 90.304 Z M 230.817 111.456 L 230.817 111.91 L 230.817 111.91 L 230.817 111.456 Z M 216.072 105.975 L 216.405 105.667 L 215.619 104.815 L 215.619 105.975 L 216.072 105.975 Z M 216.072 124.194 L 216.072 124.648 L 216.526 124.648 L 216.526 124.194 L 216.072 124.194 Z M 203.721 124.194 L 203.267 124.194 L 203.267 124.648 L 203.721 124.648 L 203.721 124.194 Z M 203.721 69.923 L 203.721 69.469 L 203.267 69.469 L 203.267 69.923 L 203.721 69.923 Z M 216.072 69.923 L 216.526 69.923 L 216.526 69.469 L 216.072 69.469 L 216.072 69.923 Z M 216.072 74.555 L 215.619 74.555 L 215.619 75.693 L 216.401 74.867 L 216.072 74.555 Z M 279.911 69.073 L 279.911 68.62 L 279.911 68.62 L 279.911 69.073 Z M 304.229 90.304 L 304.683 90.304 L 304.683 90.304 L 304.229 90.304 Z M 279.911 111.456 L 279.911 111.91 L 279.911 111.91 L 279.911 111.456 Z M 255.671 90.304 L 255.217 90.304 L 255.217 90.304 L 255.671 90.304 Z M 423.247 110.606 L 423.247 111.06 L 423.701 111.06 L 423.701 110.606 L 423.247 110.606 Z M 410.896 110.606 L 410.442 110.606 L 410.442 111.06 L 410.896 111.06 L 410.896 110.606 Z M 410.896 105.975 L 411.349 105.975 L 411.349 104.815 L 410.562 105.667 L 410.896 105.975 Z M 396.15 111.456 L 396.15 111.91 L 396.15 111.91 L 396.15 111.456 Z M 374.148 90.303 L 373.695 90.303 L 373.695 90.303 L 374.148 90.303 Z M 396.15 69.073 L 396.15 68.62 L 396.15 68.62 L 396.15 69.073 Z M 410.896 74.555 L 410.566 74.867 L 411.349 75.693 L 411.349 74.555 L 410.896 74.555 Z M 410.896 55.178 L 410.896 54.724 L 410.442 54.724 L 410.442 55.178 L 410.896 55.178 Z M 423.247 55.178 L 423.701 55.178 L 423.701 54.724 L 423.247 54.724 L 423.247 55.178 Z M 452.355 69.073 L 452.355 68.62 L 452.355 68.62 L 452.355 69.073 Z M 475.438 90.071 L 475.892 90.071 L 475.892 90.071 L 475.438 90.071 Z M 475.438 93.469 L 475.438 93.922 L 475.892 93.922 L 475.892 93.469 L 475.438 93.469 Z M 439.927 93.469 L 439.927 93.015 L 439.335 93.015 L 439.489 93.586 L 439.927 93.469 Z M 452.355 101.651 L 452.355 102.105 L 452.355 102.105 L 452.355 101.651 Z M 463.858 95.244 L 464.013 94.818 L 463.618 94.675 L 463.445 95.058 L 463.858 95.244 Z M 474.743 99.182 L 475.163 99.353 L 475.342 98.916 L 474.897 98.755 L 474.743 99.182 Z M 452.433 111.456 L 452.433 111.91 L 452.433 111.91 L 452.433 111.456 Z M 427.884 90.227 L 427.43 90.227 L 427.43 90.227 L 427.884 90.227 Z M 325.046 95.784 L 324.62 95.939 L 325.057 97.139 L 325.474 95.933 L 325.046 95.784 Z M 334.001 69.922 L 334.001 69.468 L 333.678 69.468 L 333.572 69.773 L 334.001 69.922 Z M 344.964 69.922 L 345.392 69.773 L 345.287 69.468 L 344.964 69.468 L 344.964 69.922 Z M 353.919 95.784 L 353.49 95.933 L 353.91 97.144 L 354.345 95.938 L 353.919 95.784 Z M 363.26 69.922 L 363.26 69.468 L 362.941 69.468 L 362.833 69.768 L 363.26 69.922 Z M 375.998 69.922 L 376.42 70.089 L 376.666 69.468 L 375.998 69.468 L 375.998 69.922 Z M 359.863 110.606 L 359.863 111.06 L 360.171 111.06 L 360.285 110.774 L 359.863 110.606 Z M 348.515 110.606 L 348.088 110.761 L 348.197 111.06 L 348.515 111.06 L 348.515 110.606 Z M 339.174 84.822 L 339.6 84.668 L 339.174 83.491 L 338.747 84.668 L 339.174 84.822 Z M 329.833 110.606 L 329.833 111.06 L 330.151 111.06 L 330.259 110.761 L 329.833 110.606 Z M 318.484 110.606 L 318.063 110.774 L 318.176 111.06 L 318.484 111.06 L 318.484 110.606 Z M 302.35 69.922 L 302.35 69.468 L 301.682 69.468 L 301.928 70.089 L 302.35 69.922 Z M 315.628 69.922 L 316.054 69.767 L 315.945 69.468 L 315.628 69.468 L 315.628 69.922 Z M 507.492 69.691 L 507.492 69.238 L 507.492 69.238 L 507.492 69.691 Z M 511.97 70.154 L 512.423 70.154 L 512.423 69.778 L 512.053 69.709 L 511.97 70.154 Z M 511.97 82.12 L 511.895 82.567 L 512.423 82.655 L 512.423 82.12 L 511.97 82.12 Z M 507.029 81.58 L 507.029 81.127 L 507.029 81.127 L 507.029 81.58 Z M 492.438 94.086 L 491.985 94.086 L 491.985 94.086 L 492.438 94.086 Z M 492.438 110.606 L 492.438 111.06 L 492.892 111.06 L 492.892 110.606 L 492.438 110.606 Z M 480.086 110.606 L 479.632 110.606 L 479.632 111.06 L 480.086 111.06 L 480.086 110.606 Z M 480.086 69.923 L 480.086 69.469 L 479.632 69.469 L 479.632 69.923 L 480.086 69.923 Z M 492.438 69.923 L 492.892 69.923 L 492.892 69.469 L 492.438 69.469 L 492.438 69.923 Z M 492.438 76.948 L 491.985 76.948 L 491.985 78.41 L 492.812 77.205 L 492.438 76.948 Z M 228.27 79.032 L 228.27 78.579 L 228.27 78.579 L 228.27 79.032 Z M 215.687 90.071 L 215.233 90.071 L 215.233 90.071 L 215.687 90.071 Z M 215.687 90.535 L 215.233 90.535 L 215.233 90.535 L 215.687 90.535 Z M 228.27 101.497 L 228.27 101.951 L 228.27 101.951 L 228.27 101.497 Z M 240.776 90.304 L 241.23 90.304 L 241.23 90.304 L 240.776 90.304 Z M 398.697 79.032 L 398.697 78.579 L 398.697 78.579 L 398.697 79.032 Z M 386.191 90.303 L 385.738 90.303 L 385.738 90.303 L 386.191 90.303 Z M 398.697 101.497 L 398.697 101.951 L 398.697 101.951 L 398.697 101.497 Z M 411.281 90.535 L 411.735 90.535 L 411.735 90.535 L 411.281 90.535 Z M 411.281 90.071 L 411.735 90.071 L 411.735 90.071 L 411.281 90.071 Z M 279.911 79.187 L 279.911 78.733 L 279.911 78.733 L 279.911 79.187 Z M 267.714 90.304 L 267.26 90.304 L 267.26 90.304 L 267.714 90.304 Z M 279.911 101.42 L 279.911 101.873 L 279.911 101.873 L 279.911 101.42 Z M 292.187 90.304 L 292.64 90.304 L 292.64 90.304 L 292.187 90.304 Z M 451.97 78.646 L 451.97 78.193 L 451.97 78.193 L 451.97 78.646 Z M 440.235 85.903 L 439.808 85.752 L 439.593 86.357 L 440.235 86.357 L 440.235 85.903 Z M 463.009 85.903 L 463.009 86.357 L 463.54 86.357 L 463.457 85.832 L 463.009 85.903 Z M 222.712 13.351 L 222.712 12.897 L 222.712 12.897 L 222.712 13.351 Z M 244.019 20.375 L 244.362 20.672 L 244.643 20.346 L 244.333 20.048 L 244.019 20.375 Z M 237.611 27.786 L 237.305 28.12 L 237.649 28.436 L 237.954 28.083 L 237.611 27.786 Z M 222.094 22.46 L 222.094 22.006 L 222.094 22.006 L 222.094 22.46 Z M 214.065 25.856 L 213.612 25.856 L 213.612 25.856 L 214.065 25.856 Z M 225.568 29.33 L 225.622 28.88 L 225.62 28.88 L 225.568 29.33 Z M 245.1 41.605 L 245.553 41.605 L 245.553 41.605 L 245.1 41.605 Z M 222.789 55.732 L 222.789 56.186 L 222.789 56.186 L 222.789 55.732 Z M 199.629 48.167 L 199.259 47.904 L 199.039 48.214 L 199.306 48.485 L 199.629 48.167 Z M 205.496 39.907 L 205.803 39.574 L 205.425 39.225 L 205.126 39.645 L 205.496 39.907 Z M 223.716 46.546 L 223.716 46.999 L 223.716 46.999 L 223.716 46.546 Z M 232.671 42.918 L 233.124 42.918 L 233.124 42.918 L 232.671 42.918 Z M 219.701 39.135 L 219.644 39.585 L 219.648 39.585 L 219.701 39.135 Z M 201.868 27.246 L 201.415 27.246 L 201.415 27.246 L 201.868 27.246 Z M 270.174 45.079 L 270.174 45.533 L 270.174 45.533 L 270.174 45.079 Z M 280.519 14.199 L 280.519 13.746 L 280.065 13.746 L 280.065 14.199 L 280.519 14.199 Z M 292.87 14.199 L 293.324 14.199 L 293.324 13.746 L 292.87 13.746 L 292.87 14.199 Z M 292.87 54.884 L 292.87 55.337 L 293.324 55.337 L 293.324 54.884 L 292.87 54.884 Z M 280.519 54.884 L 280.065 54.884 L 280.065 55.337 L 280.519 55.337 L 280.519 54.884 Z M 280.519 50.021 L 280.972 50.021 L 280.972 48.867 L 280.187 49.712 L 280.519 50.021 Z M 266.005 55.732 L 266.005 56.186 L 266.005 56.186 L 266.005 55.732 Z M 248.403 14.199 L 248.403 13.746 L 247.95 13.746 L 247.95 14.199 L 248.403 14.199 Z M 260.755 14.199 L 261.208 14.199 L 261.208 13.746 L 260.755 13.746 L 260.755 14.199 Z M 326.905 13.351 L 326.905 12.897 L 326.905 12.897 L 326.905 13.351 Z M 344.661 31.724 L 345.115 31.724 L 345.115 31.724 L 344.661 31.724 Z M 344.661 54.884 L 344.661 55.337 L 345.115 55.337 L 345.115 54.884 L 344.661 54.884 Z M 332.31 54.884 L 331.856 54.884 L 331.856 55.337 L 332.31 55.337 L 332.31 54.884 Z M 322.659 24.313 L 322.659 23.859 L 322.659 23.859 L 322.659 24.313 Z M 312.083 54.884 L 312.083 55.337 L 312.536 55.337 L 312.536 54.884 L 312.083 54.884 Z M 299.731 54.884 L 299.278 54.884 L 299.278 55.337 L 299.731 55.337 L 299.731 54.884 Z M 299.731 14.199 L 299.731 13.746 L 299.278 13.746 L 299.278 14.199 L 299.731 14.199 Z M 312.083 14.199 L 312.536 14.199 L 312.536 13.746 L 312.083 13.746 L 312.083 14.199 Z M 312.083 19.141 L 311.63 19.141 L 311.63 20.273 L 312.411 19.454 L 312.083 19.141 Z M 152.011 0 L 152.011 0.453 C 154.311 0.454 156.175 2.318 156.175 4.618 L 156.629 4.618 L 157.082 4.618 C 157.082 1.817 154.812 -0.453 152.011 -0.453 L 152.011 0 Z M 156.629 4.618 L 156.175 4.618 L 156.175 46.565 L 156.629 46.565 L 157.082 46.565 L 157.082 4.618 L 156.629 4.618 Z M 156.629 46.565 L 156.175 46.565 C 156.175 48.865 154.311 50.73 152.011 50.73 L 152.011 51.184 L 152.011 51.637 C 154.812 51.637 157.082 49.366 157.082 46.565 L 156.629 46.565 Z M 152.011 51.184 L 152.011 50.73 L 83.125 50.73 L 83.125 51.184 L 83.125 51.637 L 152.011 51.637 L 152.011 51.184 Z M 83.125 51.184 L 83.125 50.73 C 80.324 50.73 78.053 53.001 78.053 55.802 L 78.507 55.802 L 78.96 55.802 C 78.96 53.502 80.825 51.637 83.125 51.637 L 83.125 51.184 Z M 78.507 55.802 L 78.053 55.802 C 78.054 58.603 80.324 60.872 83.125 60.872 L 83.125 60.419 L 83.125 59.965 C 80.825 59.965 78.961 58.101 78.96 55.802 L 78.507 55.802 Z M 83.125 60.419 L 83.125 60.872 L 152.011 60.872 L 152.011 60.419 L 152.011 59.965 L 83.125 59.965 L 83.125 60.419 Z M 152.011 60.419 L 152.011 60.872 C 154.311 60.872 156.175 62.737 156.175 65.037 L 156.629 65.037 L 157.082 65.037 C 157.082 62.236 154.812 59.965 152.011 59.965 L 152.011 60.419 Z M 156.629 65.037 L 156.175 65.037 L 156.175 90.437 L 156.629 90.437 L 157.082 90.437 L 157.082 65.037 L 156.629 65.037 Z M 156.629 90.437 L 156.175 90.437 C 156.175 132.694 121.919 166.951 79.661 166.951 L 79.661 167.404 L 79.661 167.858 C 122.42 167.858 157.082 133.195 157.082 90.437 L 156.629 90.437 Z M 79.661 167.404 L 79.661 166.951 L 4.618 166.951 L 4.618 167.404 L 4.618 167.858 L 79.661 167.858 L 79.661 167.404 Z M 4.618 167.404 L 4.618 166.951 C 2.318 166.951 0.454 165.086 0.453 162.786 L 0 162.786 L -0.453 162.786 C -0.453 165.587 1.817 167.858 4.618 167.858 L 4.618 167.404 Z M 0 162.786 L 0.453 162.786 L 0.453 120.839 L 0 120.839 L -0.453 120.839 L -0.453 162.786 L 0 162.786 Z M 0 120.839 L 0.453 120.839 C 0.453 118.539 2.318 116.674 4.618 116.674 L 4.618 116.221 L 4.618 115.767 C 1.817 115.767 -0.453 118.038 -0.453 120.839 L 0 120.839 Z M 4.618 116.221 L 4.618 116.674 L 73.696 116.674 L 73.696 116.221 L 73.696 115.767 L 4.618 115.767 L 4.618 116.221 Z M 73.696 116.221 L 73.696 116.674 C 76.497 116.674 78.768 114.403 78.768 111.603 L 78.314 111.603 L 77.861 111.603 C 77.861 113.903 75.996 115.767 73.696 115.767 L 73.696 116.221 Z M 78.314 111.603 L 78.768 111.603 C 78.768 108.802 76.497 106.532 73.696 106.532 L 73.696 106.985 L 73.696 107.439 C 75.996 107.439 77.861 109.303 77.861 111.603 L 78.314 111.603 Z M 73.696 106.985 L 73.696 106.532 L 4.618 106.532 L 4.618 106.985 L 4.618 107.439 L 73.696 107.439 L 73.696 106.985 Z M 4.618 106.985 L 4.618 106.532 C 2.318 106.532 0.453 104.667 0.453 102.367 L 0 102.367 L -0.453 102.367 C -0.453 105.168 1.817 107.439 4.618 107.439 L 4.618 106.985 Z M 0 102.367 L 0.453 102.367 L 0.453 76.968 L 0 76.968 L -0.453 76.968 L -0.453 102.367 L 0 102.367 Z M 0 76.968 L 0.453 76.968 C 0.453 34.71 34.71 0.453 76.968 0.453 L 76.968 0 L 76.968 -0.453 C 34.209 -0.453 -0.453 34.209 -0.453 76.968 L 0 76.968 Z M 76.968 0 L 76.968 0.453 L 152.011 0.453 L 152.011 0 L 152.011 -0.453 L 76.968 -0.453 L 76.968 0 Z M 216.057 153.345 L 216.057 152.891 L 211.924 152.891 L 211.924 153.345 L 211.924 153.798 L 216.057 153.798 L 216.057 153.345 Z M 211.924 153.345 L 212.377 153.345 L 212.377 151.795 L 211.924 151.795 L 211.47 151.795 L 211.47 153.345 L 211.924 153.345 Z M 211.924 151.795 L 211.591 151.487 C 210.761 152.386 209.159 153.175 206.99 153.175 L 206.99 153.629 L 206.99 154.082 C 209.367 154.082 211.227 153.218 212.257 152.103 L 211.924 151.795 Z M 206.99 153.629 L 206.99 153.175 C 204.774 153.175 203.055 152.415 201.89 151.225 C 200.722 150.033 200.082 148.382 200.082 146.551 L 199.629 146.551 L 199.175 146.551 C 199.175 148.594 199.892 150.482 201.242 151.86 C 202.595 153.241 204.557 154.082 206.99 154.082 L 206.99 153.629 Z M 199.629 146.551 L 200.082 146.551 C 200.082 144.706 200.723 143.049 201.891 141.854 C 203.056 140.662 204.775 139.902 206.99 139.902 L 206.99 139.448 L 206.99 138.995 C 204.557 138.995 202.595 139.836 201.242 141.22 C 199.891 142.602 199.176 144.495 199.175 146.551 L 199.629 146.551 Z M 206.99 139.448 L 206.99 139.902 C 209.154 139.902 210.761 140.714 211.595 141.594 L 211.924 141.282 L 212.253 140.97 C 211.227 139.888 209.372 138.995 206.99 138.995 L 206.99 139.448 Z M 211.924 141.282 L 212.377 141.282 L 212.377 134.799 L 211.924 134.799 L 211.47 134.799 L 211.47 141.282 L 211.924 141.282 Z M 211.924 134.799 L 211.924 135.252 L 216.057 135.252 L 216.057 134.799 L 216.057 134.345 L 211.924 134.345 L 211.924 134.799 Z M 216.057 134.799 L 215.603 134.799 L 215.603 153.345 L 216.057 153.345 L 216.51 153.345 L 216.51 134.799 L 216.057 134.799 Z M 277.856 139.448 L 277.856 139.902 C 279.976 139.902 281.592 140.326 282.665 141.106 C 283.717 141.87 284.299 143.011 284.299 144.588 L 284.753 144.588 L 285.206 144.588 C 285.206 142.755 284.511 141.326 283.198 140.373 C 281.909 139.436 280.076 138.995 277.856 138.995 L 277.856 139.448 Z M 284.753 144.588 L 284.299 144.588 L 284.299 149.548 L 284.753 149.548 L 285.206 149.548 L 285.206 144.588 L 284.753 144.588 Z M 284.753 149.548 L 284.299 149.548 C 284.3 149.95 284.384 150.452 284.878 150.711 C 285.097 150.826 285.353 150.867 285.627 150.866 C 285.902 150.865 286.227 150.821 286.605 150.74 L 286.51 150.297 L 286.415 149.853 C 286.07 149.927 285.813 149.958 285.624 149.959 C 285.432 149.959 285.34 149.929 285.3 149.908 C 285.277 149.896 285.206 149.869 285.206 149.548 L 284.753 149.548 Z M 286.51 150.297 L 286.056 150.297 L 286.056 153.345 L 286.51 153.345 L 286.963 153.345 L 286.963 150.297 L 286.51 150.297 Z M 286.51 153.345 L 286.426 152.899 C 283.492 153.451 282.097 152.67 281.536 151.631 L 281.137 151.847 L 280.738 152.062 C 281.571 153.606 283.483 154.375 286.594 153.79 L 286.51 153.345 Z M 281.137 151.847 L 280.838 151.505 C 279.701 152.501 277.853 153.175 275.532 153.175 L 275.532 153.629 L 275.532 154.082 C 278.015 154.082 280.093 153.362 281.435 152.188 L 281.137 151.847 Z M 275.532 153.629 L 275.532 153.175 C 273.915 153.175 272.575 152.807 271.654 152.16 C 270.748 151.523 270.226 150.606 270.226 149.418 L 269.772 149.418 L 269.319 149.418 C 269.319 150.916 269.997 152.104 271.132 152.902 C 272.252 153.688 273.792 154.082 275.532 154.082 L 275.532 153.629 Z M 269.772 149.418 L 270.226 149.418 C 270.226 148.246 270.733 147.385 271.61 146.763 C 272.508 146.126 273.808 145.733 275.369 145.582 L 275.325 145.131 L 275.281 144.679 C 273.639 144.838 272.163 145.259 271.086 146.023 C 269.987 146.802 269.319 147.93 269.319 149.418 L 269.772 149.418 Z M 275.325 145.131 L 275.366 145.582 L 280.791 145.091 L 280.75 144.64 L 280.709 144.188 L 275.284 144.679 L 275.325 145.131 Z M 280.75 144.64 L 281.203 144.64 L 281.203 144.563 L 280.75 144.563 L 280.297 144.563 L 280.297 144.64 L 280.75 144.64 Z M 280.75 144.563 L 281.203 144.563 C 281.203 143.899 280.912 143.292 280.291 142.87 C 279.692 142.463 278.82 142.249 277.676 142.249 L 277.676 142.702 L 277.676 143.156 C 278.727 143.156 279.392 143.355 279.781 143.62 C 280.149 143.87 280.297 144.193 280.297 144.563 L 280.75 144.563 Z M 277.676 142.702 L 277.676 142.249 C 275.731 142.249 274.072 143.06 273.56 144.371 L 273.982 144.536 L 274.405 144.701 C 274.72 143.895 275.901 143.156 277.676 143.156 L 277.676 142.702 Z M 273.982 144.536 L 274.101 144.098 L 270.381 143.092 L 270.263 143.529 L 270.144 143.967 L 273.864 144.974 L 273.982 144.536 Z M 270.263 143.529 L 270.691 143.678 C 271.453 141.486 274.205 139.902 277.856 139.902 L 277.856 139.448 L 277.856 138.995 C 274.018 138.995 270.777 140.665 269.834 143.38 L 270.263 143.529 Z M 291.801 141.282 L 292.13 141.594 C 292.964 140.714 294.57 139.902 296.734 139.902 L 296.734 139.448 L 296.734 138.995 C 294.352 138.995 292.497 139.888 291.472 140.97 L 291.801 141.282 Z M 296.734 139.448 L 296.734 139.902 C 298.95 139.902 300.669 140.662 301.834 141.854 C 303.002 143.049 303.642 144.706 303.642 146.551 L 304.096 146.551 L 304.549 146.551 C 304.549 144.495 303.833 142.602 302.483 141.22 C 301.129 139.835 299.168 138.995 296.734 138.995 L 296.734 139.448 Z M 304.096 146.551 L 303.642 146.551 C 303.642 148.382 303.002 150.033 301.835 151.225 C 300.67 152.415 298.95 153.175 296.734 153.175 L 296.734 153.629 L 296.734 154.082 C 299.168 154.082 301.129 153.241 302.482 151.86 C 303.833 150.482 304.549 148.594 304.549 146.551 L 304.096 146.551 Z M 296.734 153.629 L 296.734 153.175 C 294.566 153.175 292.964 152.386 292.134 151.487 L 291.801 151.795 L 291.468 152.103 C 292.497 153.218 294.357 154.082 296.734 154.082 L 296.734 153.629 Z M 291.801 151.795 L 291.347 151.795 L 291.347 153.345 L 291.801 153.345 L 292.254 153.345 L 292.254 151.795 L 291.801 151.795 Z M 291.801 153.345 L 291.801 152.891 L 287.668 152.891 L 287.668 153.345 L 287.668 153.798 L 291.801 153.798 L 291.801 153.345 Z M 287.668 153.345 L 288.121 153.345 L 288.121 134.799 L 287.668 134.799 L 287.215 134.799 L 287.215 153.345 L 287.668 153.345 Z M 287.668 134.799 L 287.668 135.252 L 291.801 135.252 L 291.801 134.799 L 291.801 134.345 L 287.668 134.345 L 287.668 134.799 Z M 291.801 134.799 L 291.347 134.799 L 291.347 141.282 L 291.801 141.282 L 292.254 141.282 L 292.254 134.799 L 291.801 134.799 Z M 319.539 139.448 L 319.539 139.902 C 321.88 139.902 323.692 140.655 324.916 141.835 C 326.141 143.015 326.808 144.65 326.808 146.474 L 327.262 146.474 L 327.715 146.474 C 327.715 144.423 326.962 142.546 325.546 141.182 C 324.129 139.817 322.08 138.995 319.539 138.995 L 319.539 139.448 Z M 327.262 146.474 L 326.808 146.474 L 326.808 147.61 L 327.262 147.61 L 327.715 147.61 L 327.715 146.474 L 327.262 146.474 Z M 327.262 147.61 L 327.262 147.157 L 315.38 147.157 L 315.38 147.61 L 315.38 148.064 L 327.262 148.064 L 327.262 147.61 Z M 315.38 147.61 L 314.942 147.728 C 315.474 149.709 317.276 150.802 319.539 150.802 L 319.539 150.349 L 319.539 149.895 C 317.566 149.895 316.215 148.972 315.818 147.493 L 315.38 147.61 Z M 319.539 150.349 L 319.539 150.802 C 321.478 150.802 323.116 149.909 323.801 148.391 L 323.388 148.204 L 322.974 148.018 C 322.471 149.134 321.216 149.895 319.539 149.895 L 319.539 150.349 Z M 323.388 148.204 L 323.233 148.631 L 326.875 149.948 L 327.029 149.521 L 327.184 149.095 L 323.542 147.778 L 323.388 148.204 Z M 327.029 149.521 L 326.61 149.35 C 325.719 151.53 323.007 153.175 319.564 153.175 L 319.564 153.629 L 319.564 154.082 C 323.251 154.082 326.377 152.317 327.449 149.693 L 327.029 149.521 Z M 319.564 153.629 L 319.564 153.175 C 317.237 153.175 315.295 152.485 313.942 151.322 C 312.594 150.163 311.804 148.514 311.804 146.525 L 311.351 146.525 L 310.897 146.525 C 310.897 148.773 311.799 150.675 313.351 152.01 C 314.897 153.339 317.062 154.082 319.564 154.082 L 319.564 153.629 Z M 311.351 146.525 L 311.804 146.525 C 311.804 142.801 314.926 139.902 319.539 139.902 L 319.539 139.448 L 319.539 138.995 C 314.543 138.995 310.897 142.19 310.897 146.525 L 311.351 146.525 Z M 342.051 139.448 L 342.051 139.902 C 345.169 139.902 347.602 140.91 348.865 142.126 L 349.18 141.799 L 349.494 141.472 C 348.02 140.053 345.339 138.995 342.051 138.995 L 342.051 139.448 Z M 349.18 141.799 L 348.837 141.502 L 346.693 143.982 L 347.036 144.278 L 347.379 144.575 L 349.523 142.095 L 349.18 141.799 Z M 347.036 144.278 L 347.343 143.944 C 346.002 142.715 344.05 142.043 341.845 142.043 L 341.845 142.496 L 341.845 142.95 C 343.875 142.95 345.591 143.569 346.73 144.613 L 347.036 144.278 Z M 341.845 142.496 L 341.845 142.043 C 340.939 142.043 340.196 142.154 339.662 142.387 C 339.122 142.622 338.705 143.032 338.705 143.633 L 339.158 143.633 L 339.612 143.633 C 339.612 143.536 339.659 143.378 340.024 143.219 C 340.394 143.058 340.994 142.95 341.845 142.95 L 341.845 142.496 Z M 339.158 143.633 L 338.705 143.633 C 338.705 143.928 338.802 144.203 339.042 144.42 C 339.255 144.612 339.547 144.725 339.864 144.808 C 340.498 144.973 341.505 145.08 342.955 145.245 L 343.007 144.795 L 343.058 144.344 C 341.564 144.174 340.647 144.074 340.093 143.93 C 339.816 143.858 339.698 143.79 339.649 143.746 C 339.628 143.727 339.612 143.712 339.612 143.633 L 339.158 143.633 Z M 343.007 144.795 L 342.953 145.245 C 344.707 145.453 346.264 145.7 347.382 146.248 C 347.932 146.518 348.352 146.85 348.637 147.266 C 348.919 147.679 349.088 148.205 349.089 148.901 L 349.542 148.901 L 349.995 148.901 C 349.995 148.048 349.784 147.338 349.386 146.755 C 348.99 146.175 348.43 145.752 347.782 145.434 C 346.504 144.807 344.794 144.55 343.06 144.345 L 343.007 144.795 Z M 349.542 148.901 L 349.089 148.901 C 349.089 150.305 348.395 151.35 347.178 152.066 C 345.94 152.794 344.163 153.175 342.077 153.175 L 342.077 153.629 L 342.077 154.082 C 344.253 154.082 346.209 153.688 347.638 152.847 C 349.088 151.994 349.995 150.674 349.995 148.901 L 349.542 148.901 Z M 342.077 153.629 L 342.077 153.175 C 338.986 153.175 336.106 152.258 334.651 150.78 L 334.328 151.098 L 334.005 151.416 C 335.701 153.14 338.867 154.082 342.077 154.082 L 342.077 153.629 Z M 334.328 151.098 L 334.698 151.36 L 336.661 148.596 L 336.291 148.333 L 335.921 148.07 L 333.958 150.835 L 334.328 151.098 Z M 336.291 148.333 L 335.984 148.667 C 337.708 150.254 339.968 151.008 342.387 151.008 L 342.387 150.555 L 342.387 150.101 C 340.157 150.101 338.128 149.408 336.598 147.999 L 336.291 148.333 Z M 342.387 150.555 L 342.387 151.008 C 343.333 151.008 344.149 150.918 344.744 150.691 C 345.044 150.577 345.316 150.417 345.516 150.19 C 345.724 149.954 345.836 149.665 345.836 149.341 L 345.383 149.341 L 344.929 149.341 C 344.929 149.443 344.899 149.519 344.836 149.59 C 344.765 149.671 344.637 149.761 344.421 149.844 C 343.982 150.011 343.3 150.101 342.387 150.101 L 342.387 150.555 Z M 345.383 149.341 L 345.836 149.341 C 345.836 148.983 345.697 148.679 345.414 148.456 C 345.163 148.259 344.824 148.145 344.456 148.062 C 343.722 147.897 342.59 147.802 341.097 147.625 L 341.044 148.075 L 340.991 148.526 C 342.546 148.71 343.583 148.796 344.257 148.947 C 344.593 149.023 344.767 149.101 344.853 149.169 C 344.907 149.211 344.929 149.247 344.929 149.341 L 345.383 149.341 Z M 341.044 148.075 L 341.101 147.625 C 339.468 147.418 338.055 147.159 337.053 146.626 C 336.562 146.364 336.187 146.044 335.934 145.648 C 335.682 145.254 335.531 144.754 335.531 144.098 L 335.077 144.098 L 334.624 144.098 C 334.624 144.901 334.811 145.576 335.17 146.136 C 335.527 146.695 336.034 147.11 336.627 147.426 C 337.795 148.048 339.365 148.319 340.987 148.525 L 341.044 148.075 Z M 335.077 144.098 L 335.531 144.098 C 335.531 142.868 336.108 141.84 337.2 141.103 C 338.306 140.355 339.952 139.902 342.051 139.902 L 342.051 139.448 L 342.051 138.995 C 339.836 138.995 337.995 139.471 336.693 140.351 C 335.376 141.241 334.624 142.538 334.624 144.098 L 335.077 144.098 Z M 414.407 153.345 L 414.407 152.891 L 410.274 152.891 L 410.274 153.345 L 410.274 153.798 L 414.407 153.798 L 414.407 153.345 Z M 410.274 153.345 L 410.728 153.345 L 410.728 151.795 L 410.274 151.795 L 409.821 151.795 L 409.821 153.345 L 410.274 153.345 Z M 410.274 151.795 L 409.941 151.487 C 409.111 152.386 407.509 153.175 405.341 153.175 L 405.341 153.629 L 405.341 154.082 C 407.718 154.082 409.578 153.218 410.608 152.103 L 410.274 151.795 Z M 405.341 153.629 L 405.341 153.175 C 403.125 153.175 401.406 152.415 400.241 151.225 C 399.073 150.033 398.433 148.382 398.433 146.551 L 397.979 146.551 L 397.526 146.551 C 397.526 148.594 398.242 150.482 399.593 151.86 C 400.946 153.241 402.907 154.082 405.341 154.082 L 405.341 153.629 Z M 397.979 146.551 L 398.433 146.551 C 398.433 144.706 399.073 143.049 400.241 141.854 C 401.406 140.662 403.125 139.902 405.341 139.902 L 405.341 139.448 L 405.341 138.995 C 402.908 138.995 400.946 139.836 399.593 141.22 C 398.242 142.602 397.526 144.495 397.526 146.551 L 397.979 146.551 Z M 405.341 139.448 L 405.341 139.902 C 407.505 139.902 409.111 140.714 409.945 141.594 L 410.274 141.282 L 410.604 140.97 C 409.578 139.888 407.723 138.995 405.341 138.995 L 405.341 139.448 Z M 410.274 141.282 L 410.728 141.282 L 410.728 134.799 L 410.274 134.799 L 409.821 134.799 L 409.821 141.282 L 410.274 141.282 Z M 410.274 134.799 L 410.274 135.252 L 414.407 135.252 L 414.407 134.799 L 414.407 134.345 L 410.274 134.345 L 410.274 134.799 Z M 414.407 134.799 L 413.954 134.799 L 413.954 153.345 L 414.407 153.345 L 414.861 153.345 L 414.861 134.799 L 414.407 134.799 Z M 424.147 139.448 L 424.147 139.902 C 426.488 139.902 428.301 140.655 429.525 141.835 C 430.75 143.015 431.417 144.65 431.417 146.474 L 431.87 146.474 L 432.324 146.474 C 432.324 144.423 431.57 142.546 430.154 141.182 C 428.737 139.817 426.688 138.995 424.147 138.995 L 424.147 139.448 Z M 431.87 146.474 L 431.417 146.474 L 431.417 147.61 L 431.87 147.61 L 432.324 147.61 L 432.324 146.474 L 431.87 146.474 Z M 431.87 147.61 L 431.87 147.157 L 419.988 147.157 L 419.988 147.61 L 419.988 148.064 L 431.87 148.064 L 431.87 147.61 Z M 419.988 147.61 L 419.55 147.728 C 420.083 149.709 421.885 150.802 424.147 150.802 L 424.147 150.349 L 424.147 149.895 C 422.174 149.895 420.824 148.972 420.426 147.493 L 419.988 147.61 Z M 424.147 150.349 L 424.147 150.802 C 426.087 150.802 427.725 149.909 428.409 148.391 L 427.996 148.204 L 427.583 148.018 C 427.079 149.134 425.824 149.895 424.147 149.895 L 424.147 150.349 Z M 427.996 148.204 L 427.842 148.631 L 431.483 149.948 L 431.638 149.521 L 431.792 149.095 L 428.15 147.778 L 427.996 148.204 Z M 431.638 149.521 L 431.218 149.35 C 430.327 151.53 427.616 153.175 424.173 153.175 L 424.173 153.629 L 424.173 154.082 C 427.859 154.082 430.985 152.317 432.057 149.693 L 431.638 149.521 Z M 424.173 153.629 L 424.173 153.175 C 421.846 153.175 419.903 152.485 418.55 151.322 C 417.203 150.163 416.412 148.514 416.412 146.525 L 415.959 146.525 L 415.506 146.525 C 415.506 148.773 416.407 150.675 417.959 152.01 C 419.505 153.339 421.67 154.082 424.173 154.082 L 424.173 153.629 Z M 415.959 146.525 L 416.412 146.525 C 416.412 142.801 419.535 139.902 424.147 139.902 L 424.147 139.448 L 424.147 138.995 C 419.151 138.995 415.506 142.19 415.506 146.525 L 415.959 146.525 Z M 452.336 139.448 L 452.336 139.902 C 454.677 139.902 456.489 140.655 457.714 141.835 C 458.939 143.015 459.606 144.65 459.606 146.474 L 460.06 146.474 L 460.513 146.474 C 460.513 144.423 459.759 142.546 458.343 141.181 C 456.926 139.817 454.877 138.995 452.336 138.995 L 452.336 139.448 Z M 460.06 146.474 L 459.606 146.474 L 459.606 147.61 L 460.06 147.61 L 460.513 147.61 L 460.513 146.474 L 460.06 146.474 Z M 460.06 147.61 L 460.06 147.157 L 448.178 147.157 L 448.178 147.61 L 448.178 148.064 L 460.06 148.064 L 460.06 147.61 Z M 448.178 147.61 L 447.74 147.728 C 448.272 149.709 450.073 150.802 452.336 150.802 L 452.336 150.349 L 452.336 149.895 C 450.363 149.895 449.013 148.972 448.616 147.493 L 448.178 147.61 Z M 452.336 150.349 L 452.336 150.802 C 454.275 150.802 455.913 149.909 456.598 148.391 L 456.185 148.204 L 455.771 148.018 C 455.268 149.134 454.013 149.895 452.336 149.895 L 452.336 150.349 Z M 456.185 148.204 L 456.03 148.631 L 459.673 149.948 L 459.827 149.521 L 459.981 149.095 L 456.339 147.778 L 456.185 148.204 Z M 459.827 149.521 L 459.407 149.35 C 458.517 151.53 455.805 153.175 452.362 153.175 L 452.362 153.629 L 452.362 154.082 C 456.048 154.082 459.175 152.317 460.247 149.693 L 459.827 149.521 Z M 452.362 153.629 L 452.362 153.175 C 450.035 153.175 448.093 152.485 446.74 151.322 C 445.392 150.163 444.602 148.514 444.602 146.525 L 444.148 146.525 L 443.695 146.525 C 443.695 148.773 444.597 150.675 446.148 152.01 C 447.695 153.339 449.859 154.082 452.362 154.082 L 452.362 153.629 Z M 444.148 146.525 L 444.602 146.525 C 444.602 142.801 447.723 139.902 452.336 139.902 L 452.336 139.448 L 452.336 138.995 C 447.34 138.995 443.695 142.191 443.695 146.525 L 444.148 146.525 Z M 485.19 139.448 L 485.19 139.902 C 488.308 139.902 490.741 140.91 492.005 142.126 L 492.319 141.799 L 492.634 141.472 C 491.16 140.053 488.478 138.995 485.19 138.995 L 485.19 139.448 Z M 492.319 141.799 L 491.976 141.502 L 489.833 143.982 L 490.176 144.278 L 490.519 144.575 L 492.662 142.095 L 492.319 141.799 Z M 490.176 144.278 L 490.482 143.944 C 489.141 142.715 487.189 142.043 484.983 142.043 L 484.983 142.496 L 484.983 142.95 C 487.014 142.95 488.731 143.569 489.869 144.613 L 490.176 144.278 Z M 484.983 142.496 L 484.983 142.043 C 484.078 142.043 483.335 142.154 482.8 142.387 C 482.261 142.622 481.843 143.032 481.843 143.633 L 482.297 143.633 L 482.75 143.633 C 482.75 143.537 482.798 143.378 483.163 143.219 C 483.532 143.058 484.132 142.95 484.983 142.95 L 484.983 142.496 Z M 482.297 143.633 L 481.843 143.633 C 481.844 143.928 481.94 144.203 482.181 144.42 C 482.394 144.612 482.686 144.725 483.003 144.808 C 483.637 144.973 484.644 145.08 486.094 145.245 L 486.146 144.795 L 486.197 144.344 C 484.703 144.174 483.786 144.074 483.232 143.93 C 482.955 143.858 482.836 143.79 482.788 143.746 C 482.767 143.727 482.75 143.712 482.75 143.633 L 482.297 143.633 Z M 486.146 144.795 L 486.092 145.245 C 487.846 145.453 489.403 145.7 490.521 146.248 C 491.071 146.518 491.491 146.85 491.775 147.266 C 492.057 147.679 492.227 148.205 492.227 148.901 L 492.681 148.901 L 493.134 148.901 C 493.134 148.048 492.923 147.338 492.524 146.754 C 492.128 146.175 491.569 145.752 490.92 145.434 C 489.642 144.807 487.932 144.55 486.199 144.345 L 486.146 144.795 Z M 492.681 148.901 L 492.227 148.901 C 492.227 150.305 491.533 151.35 490.316 152.066 C 489.078 152.794 487.302 153.175 485.216 153.175 L 485.216 153.629 L 485.216 154.082 C 487.392 154.082 489.348 153.688 490.776 152.847 C 492.227 151.994 493.134 150.674 493.134 148.901 L 492.681 148.901 Z M 485.216 153.629 L 485.216 153.175 C 482.124 153.175 479.245 152.258 477.79 150.78 L 477.467 151.098 L 477.144 151.416 C 478.84 153.14 482.005 154.082 485.216 154.082 L 485.216 153.629 Z M 477.467 151.098 L 477.836 151.36 L 479.8 148.596 L 479.431 148.333 L 479.061 148.07 L 477.097 150.835 L 477.467 151.098 Z M 479.431 148.333 L 479.124 148.667 C 480.848 150.254 483.107 151.008 485.526 151.008 L 485.526 150.555 L 485.526 150.101 C 483.296 150.101 481.268 149.408 479.738 147.999 L 479.431 148.333 Z M 485.526 150.555 L 485.526 151.008 C 486.473 151.008 487.288 150.918 487.883 150.691 C 488.184 150.577 488.456 150.417 488.656 150.19 C 488.864 149.954 488.976 149.665 488.976 149.341 L 488.522 149.341 L 488.069 149.341 C 488.069 149.443 488.039 149.519 487.976 149.59 C 487.905 149.671 487.776 149.761 487.56 149.844 C 487.122 150.011 486.439 150.101 485.526 150.101 L 485.526 150.555 Z M 488.522 149.341 L 488.976 149.341 C 488.976 148.983 488.837 148.679 488.553 148.456 C 488.302 148.258 487.963 148.145 487.595 148.062 C 486.861 147.897 485.729 147.802 484.236 147.625 L 484.183 148.075 L 484.129 148.526 C 485.685 148.71 486.723 148.796 487.396 148.947 C 487.732 149.023 487.906 149.101 487.993 149.169 C 488.047 149.212 488.069 149.247 488.069 149.341 L 488.522 149.341 Z M 484.183 148.075 L 484.24 147.625 C 482.607 147.418 481.194 147.159 480.192 146.626 C 479.7 146.364 479.326 146.044 479.073 145.648 C 478.821 145.254 478.669 144.754 478.669 144.098 L 478.216 144.098 L 477.762 144.098 C 477.762 144.901 477.95 145.576 478.309 146.136 C 478.665 146.695 479.173 147.11 479.766 147.426 C 480.933 148.048 482.504 148.319 484.125 148.525 L 484.183 148.075 Z M 478.216 144.098 L 478.669 144.098 C 478.669 142.868 479.247 141.84 480.339 141.103 C 481.446 140.355 483.092 139.902 485.19 139.902 L 485.19 139.448 L 485.19 138.995 C 482.976 138.995 481.134 139.471 479.832 140.351 C 478.515 141.241 477.762 142.538 477.762 144.098 L 478.216 144.098 Z M 501.531 139.448 L 501.531 139.902 C 503.872 139.902 505.684 140.655 506.909 141.835 C 508.133 143.015 508.8 144.65 508.8 146.474 L 509.254 146.474 L 509.707 146.474 C 509.707 144.423 508.954 142.546 507.538 141.182 C 506.121 139.817 504.072 138.995 501.531 138.995 L 501.531 139.448 Z M 509.254 146.474 L 508.8 146.474 L 508.8 147.61 L 509.254 147.61 L 509.707 147.61 L 509.707 146.474 L 509.254 146.474 Z M 509.254 147.61 L 509.254 147.157 L 497.372 147.157 L 497.372 147.61 L 497.372 148.064 L 509.254 148.064 L 509.254 147.61 Z M 497.372 147.61 L 496.934 147.728 C 497.467 149.709 499.268 150.802 501.531 150.802 L 501.531 150.349 L 501.531 149.895 C 499.558 149.895 498.208 148.972 497.81 147.493 L 497.372 147.61 Z M 501.531 150.349 L 501.531 150.802 C 503.471 150.802 505.108 149.909 505.793 148.391 L 505.38 148.204 L 504.966 148.018 C 504.463 149.134 503.208 149.895 501.531 149.895 L 501.531 150.349 Z M 505.38 148.204 L 505.226 148.631 L 508.867 149.948 L 509.021 149.521 L 509.176 149.095 L 505.534 147.778 L 505.38 148.204 Z M 509.021 149.521 L 508.602 149.35 C 507.711 151.53 505 153.175 501.557 153.175 L 501.557 153.629 L 501.557 154.082 C 505.243 154.082 508.369 152.317 509.441 149.693 L 509.021 149.521 Z M 501.557 153.629 L 501.557 153.175 C 499.229 153.175 497.287 152.485 495.934 151.322 C 494.587 150.163 493.796 148.514 493.796 146.525 L 493.343 146.525 L 492.889 146.525 C 492.889 148.773 493.791 150.675 495.343 152.01 C 496.889 153.339 499.054 154.082 501.557 154.082 L 501.557 153.629 Z M 493.343 146.525 L 493.796 146.525 C 493.796 142.801 496.919 139.902 501.531 139.902 L 501.531 139.448 L 501.531 138.995 C 496.535 138.995 492.889 142.19 492.889 146.525 L 493.343 146.525 Z M 227.501 139.654 L 227.501 140.108 C 228.079 140.108 228.512 140.18 228.915 140.255 L 228.999 139.81 L 229.083 139.364 C 228.659 139.284 228.162 139.201 227.501 139.201 L 227.501 139.654 Z M 228.999 139.81 L 228.546 139.81 L 228.546 143.813 L 228.999 143.813 L 229.452 143.813 L 229.452 139.81 L 228.999 139.81 Z M 228.999 143.813 L 229.074 143.366 C 228.466 143.265 228.115 143.179 227.346 143.179 L 227.346 143.633 L 227.346 144.086 C 228.023 144.086 228.292 144.155 228.924 144.261 L 228.999 143.813 Z M 227.346 143.633 L 227.346 143.179 C 225.864 143.179 224.528 143.471 223.553 144.223 C 222.557 144.991 222.01 146.184 222.01 147.816 L 222.464 147.816 L 222.917 147.816 C 222.917 146.402 223.379 145.502 224.107 144.941 C 224.856 144.363 225.96 144.086 227.346 144.086 L 227.346 143.633 Z M 222.464 147.816 L 222.01 147.816 L 222.01 153.345 L 222.464 153.345 L 222.917 153.345 L 222.917 147.816 L 222.464 147.816 Z M 222.464 153.345 L 222.464 152.891 L 218.331 152.891 L 218.331 153.345 L 218.331 153.798 L 222.464 153.798 L 222.464 153.345 Z M 218.331 153.345 L 218.785 153.345 L 218.785 139.732 L 218.331 139.732 L 217.878 139.732 L 217.878 153.345 L 218.331 153.345 Z M 218.331 139.732 L 218.331 140.186 L 222.464 140.186 L 222.464 139.732 L 222.464 139.279 L 218.331 139.279 L 218.331 139.732 Z M 222.464 139.732 L 222.01 139.732 L 222.01 142.083 L 222.464 142.083 L 222.917 142.083 L 222.917 139.732 L 222.464 139.732 Z M 222.464 142.083 L 222.838 142.34 C 223.391 141.534 224.035 140.983 224.788 140.63 C 225.545 140.275 226.437 140.108 227.501 140.108 L 227.501 139.654 L 227.501 139.201 C 226.344 139.201 225.312 139.383 224.402 139.809 C 223.489 140.238 222.725 140.901 222.09 141.826 L 222.464 142.083 Z M 234.414 153.345 L 234.414 152.891 L 230.281 152.891 L 230.281 153.345 L 230.281 153.798 L 234.414 153.798 L 234.414 153.345 Z M 230.281 153.345 L 230.735 153.345 L 230.735 139.732 L 230.281 139.732 L 229.828 139.732 L 229.828 153.345 L 230.281 153.345 Z M 230.281 139.732 L 230.281 140.186 L 234.414 140.186 L 234.414 139.732 L 234.414 139.279 L 230.281 139.279 L 230.281 139.732 Z M 234.414 139.732 L 233.961 139.732 L 233.961 153.345 L 234.414 153.345 L 234.868 153.345 L 234.868 139.732 L 234.414 139.732 Z M 245.8 139.448 L 245.8 139.902 C 247.465 139.902 248.827 140.459 249.773 141.425 C 250.72 142.392 251.288 143.808 251.288 145.596 L 251.741 145.596 L 252.195 145.596 C 252.195 143.612 251.561 141.955 250.422 140.791 C 249.282 139.626 247.673 138.995 245.8 138.995 L 245.8 139.448 Z M 251.741 145.596 L 251.288 145.596 L 251.288 153.345 L 251.741 153.345 L 252.195 153.345 L 252.195 145.596 L 251.741 145.596 Z M 251.741 153.345 L 251.741 152.891 L 247.608 152.891 L 247.608 153.345 L 247.608 153.798 L 251.741 153.798 L 251.741 153.345 Z M 247.608 153.345 L 248.062 153.345 L 248.062 146.81 L 247.608 146.81 L 247.155 146.81 L 247.155 153.345 L 247.608 153.345 Z M 247.608 146.81 L 248.062 146.81 C 248.062 145.594 247.769 144.552 247.133 143.807 C 246.489 143.051 245.544 142.663 244.38 142.663 L 244.38 143.116 L 244.38 143.57 C 245.333 143.57 246.003 143.879 246.443 144.395 C 246.893 144.922 247.155 145.727 247.155 146.81 L 247.608 146.81 Z M 244.38 143.116 L 244.38 142.663 C 243.163 142.663 242.148 143.036 241.439 143.782 C 240.733 144.525 240.387 145.579 240.387 146.835 L 240.841 146.835 L 241.294 146.835 C 241.294 145.74 241.594 144.935 242.097 144.406 C 242.596 143.881 243.35 143.57 244.38 143.57 L 244.38 143.116 Z M 240.841 146.835 L 240.387 146.835 L 240.387 153.345 L 240.841 153.345 L 241.294 153.345 L 241.294 146.835 L 240.841 146.835 Z M 240.841 153.345 L 240.841 152.891 L 236.708 152.891 L 236.708 153.345 L 236.708 153.798 L 240.841 153.798 L 240.841 153.345 Z M 236.708 153.345 L 237.161 153.345 L 237.161 139.732 L 236.708 139.732 L 236.255 139.732 L 236.255 153.345 L 236.708 153.345 Z M 236.708 139.732 L 236.708 140.186 L 240.841 140.186 L 240.841 139.732 L 240.841 139.279 L 236.708 139.279 L 236.708 139.732 Z M 240.841 139.732 L 240.387 139.732 L 240.387 141.385 L 240.841 141.385 L 241.294 141.385 L 241.294 139.732 L 240.841 139.732 Z M 240.841 141.385 L 241.169 141.698 C 242.137 140.682 243.721 139.902 245.8 139.902 L 245.8 139.448 L 245.8 138.995 C 243.488 138.995 241.662 139.866 240.513 141.072 L 240.841 141.385 Z M 258.063 145.518 L 258.359 145.861 L 265.05 140.075 L 264.753 139.732 L 264.456 139.389 L 257.766 145.175 L 258.063 145.518 Z M 264.753 139.732 L 264.753 140.186 L 270.332 140.186 L 270.332 139.732 L 270.332 139.279 L 264.753 139.279 L 264.753 139.732 Z M 270.332 139.732 L 270.04 139.386 L 263.247 145.119 L 263.539 145.466 L 263.832 145.812 L 270.625 140.079 L 270.332 139.732 Z M 263.539 145.466 L 263.199 145.766 L 270.173 153.645 L 270.513 153.345 L 270.852 153.044 L 263.879 145.165 L 263.539 145.466 Z M 270.513 153.345 L 270.513 152.891 L 265.398 152.891 L 265.398 153.345 L 265.398 153.798 L 270.513 153.798 L 270.513 153.345 Z M 265.398 153.345 L 265.735 153.041 L 260.879 147.668 L 260.543 147.972 L 260.207 148.276 L 265.062 153.649 L 265.398 153.345 Z M 260.543 147.972 L 260.251 147.625 L 257.77 149.718 L 258.063 150.064 L 258.355 150.411 L 260.835 148.318 L 260.543 147.972 Z M 258.063 150.064 L 257.609 150.064 L 257.609 153.345 L 258.063 153.345 L 258.516 153.345 L 258.516 150.064 L 258.063 150.064 Z M 258.063 153.345 L 258.063 152.891 L 253.931 152.891 L 253.931 153.345 L 253.931 153.798 L 258.063 153.798 L 258.063 153.345 Z M 253.931 153.345 L 254.384 153.345 L 254.384 134.799 L 253.931 134.799 L 253.477 134.799 L 253.477 153.345 L 253.931 153.345 Z M 253.931 134.799 L 253.931 135.252 L 258.063 135.252 L 258.063 134.799 L 258.063 134.345 L 253.931 134.345 L 253.931 134.799 Z M 258.063 134.799 L 257.609 134.799 L 257.609 145.518 L 258.063 145.518 L 258.516 145.518 L 258.516 134.799 L 258.063 134.799 Z M 309.78 153.345 L 309.78 152.891 L 305.647 152.891 L 305.647 153.345 L 305.647 153.798 L 309.78 153.798 L 309.78 153.345 Z M 305.647 153.345 L 306.101 153.345 L 306.101 134.799 L 305.647 134.799 L 305.194 134.799 L 305.194 153.345 L 305.647 153.345 Z M 305.647 134.799 L 305.647 135.252 L 309.78 135.252 L 309.78 134.799 L 309.78 134.345 L 305.647 134.345 L 305.647 134.799 Z M 309.78 134.799 L 309.327 134.799 L 309.327 153.345 L 309.78 153.345 L 310.234 153.345 L 310.234 134.799 L 309.78 134.799 Z M 355.085 145.518 L 355.382 145.861 L 362.072 140.075 L 361.775 139.732 L 361.479 139.389 L 354.788 145.175 L 355.085 145.518 Z M 361.775 139.732 L 361.775 140.186 L 367.354 140.186 L 367.354 139.732 L 367.354 139.279 L 361.775 139.279 L 361.775 139.732 Z M 367.354 139.732 L 367.062 139.386 L 360.268 145.119 L 360.561 145.466 L 360.853 145.812 L 367.647 140.079 L 367.354 139.732 Z M 360.561 145.466 L 360.221 145.766 L 367.196 153.645 L 367.535 153.345 L 367.875 153.044 L 360.9 145.165 L 360.561 145.466 Z M 367.535 153.345 L 367.535 152.891 L 362.421 152.891 L 362.421 153.345 L 362.421 153.798 L 367.535 153.798 L 367.535 153.345 Z M 362.421 153.345 L 362.757 153.041 L 357.901 147.668 L 357.564 147.972 L 357.228 148.276 L 362.084 153.649 L 362.421 153.345 Z M 357.564 147.972 L 357.272 147.625 L 354.792 149.718 L 355.085 150.064 L 355.377 150.411 L 357.857 148.318 L 357.564 147.972 Z M 355.085 150.064 L 354.632 150.064 L 354.632 153.345 L 355.085 153.345 L 355.538 153.345 L 355.538 150.064 L 355.085 150.064 Z M 355.085 153.345 L 355.085 152.891 L 350.952 152.891 L 350.952 153.345 L 350.952 153.798 L 355.085 153.798 L 355.085 153.345 Z M 350.952 153.345 L 351.406 153.345 L 351.406 134.799 L 350.952 134.799 L 350.499 134.799 L 350.499 153.345 L 350.952 153.345 Z M 350.952 134.799 L 350.952 135.252 L 355.085 135.252 L 355.085 134.799 L 355.085 134.345 L 350.952 134.345 L 350.952 134.799 Z M 355.085 134.799 L 354.632 134.799 L 354.632 145.518 L 355.085 145.518 L 355.538 145.518 L 355.538 134.799 L 355.085 134.799 Z M 372.307 153.345 L 372.307 152.891 L 368.174 152.891 L 368.174 153.345 L 368.174 153.798 L 372.307 153.798 L 372.307 153.345 Z M 368.174 153.345 L 368.627 153.345 L 368.627 139.732 L 368.174 139.732 L 367.72 139.732 L 367.72 153.345 L 368.174 153.345 Z M 368.174 139.732 L 368.174 140.186 L 372.307 140.186 L 372.307 139.732 L 372.307 139.279 L 368.174 139.279 L 368.174 139.732 Z M 372.307 139.732 L 371.853 139.732 L 371.853 153.345 L 372.307 153.345 L 372.76 153.345 L 372.76 139.732 L 372.307 139.732 Z M 383.692 139.448 L 383.692 139.902 C 385.358 139.902 386.72 140.459 387.666 141.425 C 388.613 142.392 389.18 143.808 389.18 145.596 L 389.634 145.596 L 390.087 145.596 C 390.087 143.612 389.454 141.955 388.314 140.791 C 387.174 139.626 385.566 138.995 383.692 138.995 L 383.692 139.448 Z M 389.634 145.596 L 389.18 145.596 L 389.18 153.345 L 389.634 153.345 L 390.087 153.345 L 390.087 145.596 L 389.634 145.596 Z M 389.634 153.345 L 389.634 152.891 L 385.501 152.891 L 385.501 153.345 L 385.501 153.798 L 389.634 153.798 L 389.634 153.345 Z M 385.501 153.345 L 385.954 153.345 L 385.954 146.81 L 385.501 146.81 L 385.048 146.81 L 385.048 153.345 L 385.501 153.345 Z M 385.501 146.81 L 385.954 146.81 C 385.954 145.594 385.661 144.551 385.025 143.806 C 384.38 143.05 383.436 142.663 382.271 142.663 L 382.271 143.116 L 382.271 143.57 C 383.225 143.57 383.895 143.879 384.336 144.395 C 384.785 144.922 385.048 145.727 385.048 146.81 L 385.501 146.81 Z M 382.271 143.116 L 382.271 142.663 C 381.055 142.663 380.039 143.036 379.331 143.782 C 378.626 144.525 378.28 145.579 378.28 146.835 L 378.733 146.835 L 379.187 146.835 C 379.187 145.74 379.487 144.935 379.989 144.407 C 380.488 143.881 381.242 143.57 382.272 143.57 L 382.271 143.116 Z M 378.733 146.835 L 378.28 146.835 L 378.28 153.345 L 378.733 153.345 L 379.187 153.345 L 379.187 146.835 L 378.733 146.835 Z M 378.733 153.345 L 378.733 152.891 L 374.601 152.891 L 374.601 153.345 L 374.601 153.798 L 378.733 153.798 L 378.733 153.345 Z M 374.601 153.345 L 375.054 153.345 L 375.054 139.732 L 374.601 139.732 L 374.147 139.732 L 374.147 153.345 L 374.601 153.345 Z M 374.601 139.732 L 374.601 140.186 L 378.733 140.186 L 378.733 139.732 L 378.733 139.279 L 374.601 139.279 L 374.601 139.732 Z M 378.733 139.732 L 378.28 139.732 L 378.28 141.385 L 378.733 141.385 L 379.187 141.385 L 379.187 139.732 L 378.733 139.732 Z M 378.733 141.385 L 379.062 141.698 C 380.03 140.682 381.613 139.902 383.692 139.902 L 383.692 139.448 L 383.692 138.995 C 381.381 138.995 379.555 139.866 378.405 141.072 L 378.733 141.385 Z M 441.613 134.515 L 441.613 134.968 C 442.851 134.968 444.107 135.146 444.863 135.429 L 445.022 135.005 L 445.182 134.58 C 444.285 134.244 442.907 134.061 441.613 134.061 L 441.613 134.515 Z M 445.022 135.005 L 444.575 134.93 L 444.033 138.159 L 444.48 138.234 L 444.928 138.309 L 445.47 135.08 L 445.022 135.005 Z M 444.48 138.234 L 444.6 137.797 C 443.715 137.555 442.873 137.419 441.871 137.419 L 441.871 137.872 L 441.871 138.326 C 442.781 138.326 443.541 138.448 444.361 138.672 L 444.48 138.234 Z M 441.871 137.872 L 441.871 137.419 C 440.967 137.419 440.211 137.548 439.672 137.904 C 439.092 138.285 438.835 138.877 438.835 139.602 L 439.288 139.603 L 439.742 139.603 C 439.742 139.114 439.898 138.841 440.171 138.661 C 440.484 138.454 441.019 138.326 441.871 138.326 L 441.871 137.872 Z M 439.288 139.603 L 438.835 139.603 L 438.835 139.732 L 439.288 139.732 L 439.742 139.732 L 439.742 139.603 L 439.288 139.603 Z M 439.288 139.732 L 439.288 140.186 L 444.299 140.186 L 444.299 139.732 L 444.299 139.279 L 439.288 139.279 L 439.288 139.732 Z M 444.299 139.732 L 443.845 139.732 L 443.845 143.142 L 444.299 143.142 L 444.752 143.142 L 444.752 139.732 L 444.299 139.732 Z M 444.299 143.142 L 444.299 142.688 L 439.288 142.688 L 439.288 143.142 L 439.288 143.595 L 444.299 143.595 L 444.299 143.142 Z M 439.288 143.142 L 438.835 143.142 L 438.835 153.345 L 439.288 153.345 L 439.742 153.345 L 439.742 143.142 L 439.288 143.142 Z M 439.288 153.345 L 439.288 152.891 L 435.207 152.891 L 435.207 153.345 L 435.207 153.798 L 439.288 153.798 L 439.288 153.345 Z M 435.207 153.345 L 435.66 153.345 L 435.66 143.142 L 435.207 143.142 L 434.754 143.142 L 434.754 153.345 L 435.207 153.345 Z M 435.207 143.142 L 435.207 142.688 L 432.134 142.688 L 432.134 143.142 L 432.134 143.595 L 435.207 143.595 L 435.207 143.142 Z M 432.134 143.142 L 432.587 143.142 L 432.587 139.732 L 432.134 139.732 L 431.68 139.732 L 431.68 143.142 L 432.134 143.142 Z M 432.134 139.732 L 432.134 140.186 L 435.207 140.186 L 435.207 139.732 L 435.207 139.279 L 432.134 139.279 L 432.134 139.732 Z M 435.207 139.732 L 435.66 139.732 L 435.66 139.525 L 435.207 139.525 L 434.754 139.525 L 434.754 139.732 L 435.207 139.732 Z M 435.207 139.525 L 435.66 139.525 C 435.661 137.951 436.206 136.843 437.173 136.113 C 438.16 135.366 439.649 134.968 441.613 134.968 L 441.613 134.515 L 441.613 134.061 C 439.548 134.061 437.834 134.476 436.626 135.389 C 435.396 136.319 434.754 137.716 434.754 139.525 L 435.207 139.525 Z M 470.706 139.448 L 470.706 139.902 C 472.371 139.902 473.734 140.459 474.68 141.425 C 475.626 142.392 476.194 143.808 476.194 145.596 L 476.647 145.596 L 477.101 145.596 C 477.101 143.612 476.467 141.955 475.328 140.791 C 474.188 139.626 472.579 138.995 470.706 138.995 L 470.706 139.448 Z M 476.647 145.596 L 476.194 145.596 L 476.194 153.345 L 476.647 153.345 L 477.101 153.345 L 477.101 145.596 L 476.647 145.596 Z M 476.647 153.345 L 476.647 152.891 L 472.515 152.891 L 472.515 153.345 L 472.515 153.798 L 476.647 153.798 L 476.647 153.345 Z M 472.515 153.345 L 472.968 153.345 L 472.968 146.81 L 472.515 146.81 L 472.061 146.81 L 472.061 153.345 L 472.515 153.345 Z M 472.515 146.81 L 472.968 146.81 C 472.968 145.594 472.675 144.552 472.04 143.807 C 471.395 143.051 470.451 142.663 469.286 142.663 L 469.286 143.116 L 469.286 143.57 C 470.239 143.57 470.909 143.879 471.35 144.395 C 471.799 144.922 472.061 145.727 472.061 146.81 L 472.515 146.81 Z M 469.286 143.116 L 469.286 142.663 C 468.069 142.663 467.054 143.036 466.345 143.782 C 465.64 144.525 465.294 145.579 465.294 146.835 L 465.747 146.835 L 466.201 146.835 C 466.201 145.74 466.501 144.935 467.003 144.406 C 467.502 143.881 468.256 143.57 469.286 143.57 L 469.286 143.116 Z M 465.747 146.835 L 465.294 146.835 L 465.294 153.345 L 465.747 153.345 L 466.201 153.345 L 466.201 146.835 L 465.747 146.835 Z M 465.747 153.345 L 465.747 152.891 L 461.614 152.891 L 461.614 153.345 L 461.614 153.798 L 465.747 153.798 L 465.747 153.345 Z M 461.614 153.345 L 462.068 153.345 L 462.068 139.732 L 461.614 139.732 L 461.161 139.732 L 461.161 153.345 L 461.614 153.345 Z M 461.614 139.732 L 461.614 140.186 L 465.747 140.186 L 465.747 139.732 L 465.747 139.279 L 461.614 139.279 L 461.614 139.732 Z M 465.747 139.732 L 465.294 139.732 L 465.294 141.385 L 465.747 141.385 L 466.201 141.385 L 466.201 139.732 L 465.747 139.732 Z M 465.747 141.385 L 466.075 141.698 C 467.043 140.682 468.627 139.902 470.706 139.902 L 470.706 139.448 L 470.706 138.995 C 468.395 138.995 466.569 139.866 465.419 141.072 L 465.747 141.385 Z M 275.92 147.895 L 275.879 147.443 C 275.159 147.508 274.535 147.63 274.083 147.899 C 273.848 148.038 273.651 148.223 273.515 148.465 C 273.38 148.706 273.322 148.976 273.322 149.264 L 273.775 149.264 L 274.229 149.264 C 274.229 149.099 274.261 148.988 274.306 148.908 C 274.351 148.829 274.423 148.752 274.547 148.678 C 274.812 148.52 275.26 148.41 275.961 148.346 L 275.92 147.895 Z M 273.775 149.264 L 273.322 149.264 C 273.322 149.898 273.667 150.374 274.216 150.665 C 274.737 150.941 275.449 151.06 276.281 151.06 L 276.281 150.606 L 276.281 150.153 C 275.512 150.153 274.972 150.039 274.64 149.864 C 274.337 149.703 274.229 149.508 274.229 149.264 L 273.775 149.264 Z M 276.281 150.606 L 276.281 151.06 C 277.396 151.06 278.584 150.824 279.511 150.364 C 280.422 149.912 281.203 149.173 281.203 148.127 L 280.75 148.127 L 280.297 148.127 C 280.296 148.656 279.902 149.157 279.108 149.551 C 278.33 149.937 277.285 150.153 276.281 150.153 L 276.281 150.606 Z M 280.75 148.127 L 281.203 148.127 L 281.203 147.403 L 280.75 147.403 L 280.297 147.403 L 280.297 148.127 L 280.75 148.127 Z M 280.75 147.403 L 280.704 146.952 L 275.874 147.443 L 275.92 147.895 L 275.966 148.346 L 280.796 147.854 L 280.75 147.403 Z M 207.843 142.78 L 207.843 142.327 C 206.621 142.327 205.465 142.688 204.607 143.408 C 203.739 144.135 203.205 145.207 203.205 146.551 L 203.658 146.551 L 204.112 146.551 C 204.112 145.467 204.533 144.653 205.19 144.103 C 205.855 143.544 206.792 143.234 207.843 143.234 L 207.843 142.78 Z M 203.658 146.551 L 203.205 146.551 C 203.205 147.895 203.739 148.961 204.608 149.683 C 205.468 150.397 206.623 150.75 207.843 150.75 L 207.843 150.297 L 207.843 149.843 C 206.79 149.843 205.853 149.538 205.188 148.985 C 204.533 148.441 204.112 147.634 204.112 146.551 L 203.658 146.551 Z M 207.843 150.297 L 207.843 150.75 C 210.402 150.75 212.507 149.085 212.507 146.629 L 212.054 146.629 L 211.6 146.629 C 211.6 148.46 210.036 149.843 207.843 149.843 L 207.843 150.297 Z M 212.054 146.629 L 212.507 146.629 L 212.507 146.474 L 212.054 146.474 L 211.6 146.474 L 211.6 146.629 L 212.054 146.629 Z M 212.054 146.474 L 212.507 146.474 C 212.507 144.021 210.407 142.327 207.843 142.327 L 207.843 142.78 L 207.843 143.234 C 210.031 143.234 211.6 144.639 211.6 146.474 L 212.054 146.474 Z M 295.882 142.78 L 295.882 142.327 C 293.318 142.327 291.218 144.021 291.218 146.474 L 291.672 146.474 L 292.125 146.474 C 292.125 144.639 293.693 143.234 295.882 143.234 L 295.882 142.78 Z M 291.672 146.474 L 291.218 146.474 L 291.218 146.629 L 291.672 146.629 L 292.125 146.629 L 292.125 146.474 L 291.672 146.474 Z M 291.672 146.629 L 291.218 146.629 C 291.219 149.085 293.322 150.75 295.882 150.75 L 295.882 150.297 L 295.882 149.843 C 293.689 149.843 292.125 148.46 292.125 146.629 L 291.672 146.629 Z M 295.882 150.297 L 295.882 150.75 C 297.102 150.75 298.257 150.397 299.116 149.683 C 299.985 148.961 300.52 147.895 300.52 146.551 L 300.066 146.551 L 299.613 146.551 C 299.613 147.634 299.192 148.441 298.537 148.986 C 297.872 149.538 296.935 149.843 295.882 149.843 L 295.882 150.297 Z M 300.066 146.551 L 300.52 146.551 C 300.52 145.207 299.985 144.135 299.118 143.408 C 298.259 142.688 297.104 142.327 295.882 142.327 L 295.882 142.78 L 295.882 143.234 C 296.933 143.234 297.87 143.544 298.535 144.103 C 299.191 144.653 299.613 145.467 299.613 146.551 L 300.066 146.551 Z M 406.193 142.78 L 406.193 142.327 C 404.972 142.327 403.816 142.688 402.957 143.408 C 402.09 144.135 401.555 145.207 401.555 146.551 L 402.009 146.551 L 402.462 146.551 C 402.462 145.467 402.884 144.653 403.54 144.103 C 404.206 143.544 405.142 143.234 406.193 143.234 L 406.193 142.78 Z M 402.009 146.551 L 401.555 146.551 C 401.555 147.895 402.09 148.961 402.959 149.683 C 403.818 150.397 404.974 150.75 406.193 150.75 L 406.193 150.297 L 406.193 149.843 C 405.14 149.843 404.203 149.538 403.538 148.985 C 402.883 148.441 402.462 147.634 402.462 146.551 L 402.009 146.551 Z M 406.193 150.297 L 406.193 150.75 C 408.753 150.75 410.858 149.085 410.858 146.629 L 410.404 146.629 L 409.951 146.629 C 409.951 148.46 408.386 149.843 406.193 149.843 L 406.193 150.297 Z M 410.404 146.629 L 410.858 146.629 L 410.858 146.474 L 410.404 146.474 L 409.951 146.474 L 409.951 146.629 L 410.404 146.629 Z M 410.404 146.474 L 410.858 146.474 C 410.858 144.021 408.757 142.327 406.193 142.327 L 406.193 142.78 L 406.193 143.234 C 408.382 143.234 409.951 144.639 409.951 146.474 L 410.404 146.474 Z M 319.409 142.65 L 319.409 142.197 C 317.47 142.197 315.707 143.094 315.056 144.927 L 315.483 145.079 L 315.911 145.231 C 316.396 143.862 317.732 143.104 319.409 143.104 L 319.409 142.65 Z M 315.483 145.079 L 315.483 145.533 L 323.104 145.533 L 323.104 145.079 L 323.104 144.626 L 315.483 144.626 L 315.483 145.079 Z M 323.104 145.079 L 323.551 145.008 C 323.327 143.598 321.744 142.197 319.409 142.197 L 319.409 142.65 L 319.409 143.104 C 321.414 143.104 322.518 144.287 322.656 145.15 L 323.104 145.079 Z M 424.018 142.65 L 424.018 142.197 C 422.079 142.197 420.315 143.094 419.664 144.927 L 420.092 145.079 L 420.519 145.231 C 421.005 143.862 422.34 143.104 424.018 143.104 L 424.018 142.65 Z M 420.092 145.079 L 420.092 145.533 L 427.712 145.533 L 427.712 145.079 L 427.712 144.626 L 420.092 144.626 L 420.092 145.079 Z M 427.712 145.079 L 428.16 145.008 C 427.935 143.598 426.352 142.197 424.018 142.197 L 424.018 142.65 L 424.018 143.104 C 426.023 143.104 427.127 144.287 427.264 145.15 L 427.712 145.079 Z M 452.207 142.65 L 452.207 142.197 C 450.268 142.197 448.505 143.093 447.854 144.927 L 448.281 145.079 L 448.709 145.231 C 449.194 143.862 450.53 143.104 452.207 143.104 L 452.207 142.65 Z M 448.281 145.079 L 448.281 145.533 L 455.9 145.533 L 455.9 145.079 L 455.9 144.626 L 448.281 144.626 L 448.281 145.079 Z M 455.9 145.079 L 456.348 145.008 C 456.124 143.598 454.542 142.197 452.207 142.197 L 452.207 142.65 L 452.207 143.104 C 454.212 143.104 455.315 144.287 455.453 145.15 L 455.9 145.079 Z M 501.401 142.65 L 501.401 142.197 C 499.463 142.197 497.699 143.094 497.048 144.927 L 497.476 145.079 L 497.903 145.231 C 498.389 143.862 499.724 143.104 501.401 143.104 L 501.401 142.65 Z M 497.476 145.079 L 497.476 145.533 L 505.096 145.533 L 505.096 145.079 L 505.096 144.626 L 497.476 144.626 L 497.476 145.079 Z M 505.096 145.079 L 505.544 145.008 C 505.319 143.598 503.736 142.197 501.401 142.197 L 501.401 142.65 L 501.401 143.104 C 503.406 143.104 504.51 144.287 504.648 145.15 L 505.096 145.079 Z M 234.466 138.337 L 234.466 137.883 L 230.256 137.883 L 230.256 138.337 L 230.256 138.79 L 234.466 138.79 L 234.466 138.337 Z M 230.256 138.337 L 230.709 138.337 L 230.709 134.799 L 230.256 134.799 L 229.802 134.799 L 229.802 138.337 L 230.256 138.337 Z M 230.256 134.799 L 230.256 135.252 L 234.466 135.252 L 234.466 134.799 L 234.466 134.345 L 230.256 134.345 L 230.256 134.799 Z M 234.466 134.799 L 234.012 134.799 L 234.012 138.337 L 234.466 138.337 L 234.919 138.337 L 234.919 134.799 L 234.466 134.799 Z M 372.358 138.337 L 372.358 137.883 L 368.148 137.883 L 368.148 138.337 L 368.148 138.79 L 372.358 138.79 L 372.358 138.337 Z M 368.148 138.337 L 368.602 138.337 L 368.602 134.799 L 368.148 134.799 L 367.695 134.799 L 367.695 138.337 L 368.148 138.337 Z M 368.148 134.799 L 368.148 135.252 L 372.358 135.252 L 372.358 134.799 L 372.358 134.345 L 368.148 134.345 L 368.148 134.799 Z M 372.358 134.799 L 371.905 134.799 L 371.905 138.337 L 372.358 138.337 L 372.812 138.337 L 372.812 134.799 L 372.358 134.799 Z M 230.817 69.073 L 230.817 69.527 C 237.657 69.527 243.036 71.88 246.705 75.634 C 250.377 79.391 252.366 84.581 252.366 90.304 L 252.819 90.304 L 253.273 90.304 C 253.273 84.37 251.209 78.944 247.354 75 C 243.496 71.053 237.874 68.62 230.817 68.62 L 230.817 69.073 Z M 252.819 90.304 L 252.366 90.304 C 252.366 95.987 250.377 101.157 246.705 104.905 C 243.036 108.65 237.657 111.003 230.817 111.003 L 230.817 111.456 L 230.817 111.91 C 237.874 111.91 243.496 109.476 247.353 105.54 C 251.208 101.606 253.273 96.2 253.273 90.304 L 252.819 90.304 Z M 230.817 111.456 L 230.817 111.003 C 224.128 111.003 219.085 108.569 216.405 105.667 L 216.072 105.975 L 215.739 106.282 C 218.618 109.401 223.92 111.91 230.817 111.91 L 230.817 111.456 Z M 216.072 105.975 L 215.619 105.975 L 215.619 124.194 L 216.072 124.194 L 216.526 124.194 L 216.526 105.975 L 216.072 105.975 Z M 216.072 124.194 L 216.072 123.741 L 203.721 123.741 L 203.721 124.194 L 203.721 124.648 L 216.072 124.648 L 216.072 124.194 Z M 203.721 124.194 L 204.174 124.194 L 204.174 69.923 L 203.721 69.923 L 203.267 69.923 L 203.267 124.194 L 203.721 124.194 Z M 203.721 69.923 L 203.721 70.376 L 216.072 70.376 L 216.072 69.923 L 216.072 69.469 L 203.721 69.469 L 203.721 69.923 Z M 216.072 69.923 L 215.619 69.923 L 215.619 74.555 L 216.072 74.555 L 216.526 74.555 L 216.526 69.923 L 216.072 69.923 Z M 216.072 74.555 L 216.401 74.867 C 219.085 72.034 224.133 69.527 230.817 69.527 L 230.817 69.073 L 230.817 68.62 C 223.915 68.62 218.618 71.208 215.743 74.243 L 216.072 74.555 Z M 279.911 69.073 L 279.911 69.527 C 293.398 69.527 303.776 77.806 303.776 90.304 L 304.229 90.304 L 304.683 90.304 C 304.683 77.171 293.753 68.62 279.911 68.62 L 279.911 69.073 Z M 304.229 90.304 L 303.776 90.304 C 303.776 102.799 293.4 111.003 279.911 111.003 L 279.911 111.456 L 279.911 111.91 C 293.75 111.91 304.683 103.438 304.683 90.304 L 304.229 90.304 Z M 279.911 111.456 L 279.911 111.003 C 266.424 111.002 256.125 102.8 256.124 90.304 L 255.671 90.304 L 255.217 90.304 C 255.218 103.437 266.07 111.909 279.911 111.91 L 279.911 111.456 Z M 255.671 90.304 L 256.124 90.304 C 256.124 77.805 266.426 69.527 279.911 69.527 L 279.911 69.073 L 279.911 68.62 C 266.068 68.62 255.217 77.173 255.217 90.304 L 255.671 90.304 Z M 423.247 110.606 L 423.247 110.153 L 410.896 110.153 L 410.896 110.606 L 410.896 111.06 L 423.247 111.06 L 423.247 110.606 Z M 410.896 110.606 L 411.349 110.606 L 411.349 105.975 L 410.896 105.975 L 410.442 105.975 L 410.442 110.606 L 410.896 110.606 Z M 410.896 105.975 L 410.562 105.667 C 407.883 108.569 402.84 111.003 396.15 111.003 L 396.15 111.456 L 396.15 111.91 C 403.048 111.909 408.35 109.401 411.229 106.282 L 410.896 105.975 Z M 396.15 111.456 L 396.15 111.003 C 389.311 111.003 383.932 108.649 380.262 104.904 C 376.59 101.157 374.602 95.986 374.602 90.303 L 374.148 90.303 L 373.695 90.303 C 373.695 96.199 375.76 101.605 379.615 105.539 C 383.472 109.476 389.094 111.91 396.15 111.91 L 396.15 111.456 Z M 374.148 90.303 L 374.602 90.303 C 374.602 84.58 376.591 79.39 380.263 75.634 C 383.932 71.88 389.311 69.527 396.15 69.527 L 396.15 69.073 L 396.15 68.62 C 389.094 68.62 383.472 71.053 379.614 75 C 375.759 78.943 373.695 84.369 373.695 90.303 L 374.148 90.303 Z M 396.15 69.073 L 396.15 69.527 C 402.835 69.527 407.883 72.034 410.566 74.867 L 410.896 74.555 L 411.225 74.243 C 408.35 71.208 403.053 68.62 396.15 68.62 L 396.15 69.073 Z M 410.896 74.555 L 411.349 74.555 L 411.349 55.178 L 410.896 55.178 L 410.442 55.178 L 410.442 74.555 L 410.896 74.555 Z M 410.896 55.178 L 410.896 55.631 L 423.247 55.631 L 423.247 55.178 L 423.247 54.724 L 410.896 54.724 L 410.896 55.178 Z M 423.247 55.178 L 422.794 55.178 L 422.794 110.606 L 423.247 110.606 L 423.701 110.606 L 423.701 55.178 L 423.247 55.178 Z M 452.355 69.073 L 452.355 69.527 C 459.551 69.527 465.203 71.847 469.054 75.556 C 472.905 79.266 474.985 84.395 474.985 90.071 L 475.438 90.071 L 475.892 90.071 C 475.892 84.168 473.725 78.797 469.683 74.903 C 465.64 71.009 459.751 68.62 452.355 68.62 L 452.355 69.073 Z M 475.438 90.071 L 474.985 90.071 L 474.985 93.469 L 475.438 93.469 L 475.892 93.469 L 475.892 90.071 L 475.438 90.071 Z M 475.438 93.469 L 475.438 93.015 L 439.927 93.015 L 439.927 93.469 L 439.927 93.922 L 475.438 93.922 L 475.438 93.469 Z M 439.927 93.469 L 439.489 93.586 C 440.946 99.009 445.881 102.105 452.355 102.105 L 452.355 101.651 L 452.355 101.198 C 446.17 101.198 441.687 98.272 440.365 93.351 L 439.927 93.469 Z M 452.355 101.651 L 452.355 102.105 C 457.891 102.105 462.405 99.569 464.272 95.431 L 463.858 95.244 L 463.445 95.058 C 461.76 98.793 457.628 101.198 452.355 101.198 L 452.355 101.651 Z M 463.858 95.244 L 463.704 95.671 L 474.589 99.608 L 474.743 99.182 L 474.897 98.755 L 464.013 94.818 L 463.858 95.244 Z M 474.743 99.182 L 474.323 99.01 C 471.48 105.968 462.964 111.003 452.433 111.003 L 452.433 111.456 L 452.433 111.91 C 463.208 111.91 472.139 106.754 475.163 99.353 L 474.743 99.182 Z M 452.433 111.456 L 452.433 111.003 C 445.302 111.003 439.276 108.887 435.04 105.245 C 430.81 101.608 428.337 96.427 428.337 90.227 L 427.884 90.227 L 427.43 90.227 C 427.43 96.686 430.014 102.12 434.449 105.933 C 438.878 109.741 445.127 111.909 452.433 111.91 L 452.433 111.456 Z M 427.884 90.227 L 428.337 90.227 C 428.337 78.489 438.188 69.527 452.355 69.527 L 452.355 69.073 L 452.355 68.62 C 437.805 68.62 427.43 77.878 427.43 90.227 L 427.884 90.227 Z M 325.046 95.784 L 325.474 95.933 L 334.43 70.07 L 334.001 69.922 L 333.572 69.773 L 324.617 95.636 L 325.046 95.784 Z M 334.001 69.922 L 334.001 70.375 L 344.964 70.375 L 344.964 69.922 L 344.964 69.468 L 334.001 69.468 L 334.001 69.922 Z M 344.964 69.922 L 344.535 70.07 L 353.49 95.933 L 353.919 95.784 L 354.347 95.636 L 345.392 69.773 L 344.964 69.922 Z M 353.919 95.784 L 354.345 95.938 L 363.686 70.076 L 363.26 69.922 L 362.833 69.768 L 353.492 95.63 L 353.919 95.784 Z M 363.26 69.922 L 363.26 70.375 L 375.998 70.375 L 375.998 69.922 L 375.998 69.468 L 363.26 69.468 L 363.26 69.922 Z M 375.998 69.922 L 375.577 69.755 L 359.442 110.439 L 359.863 110.606 L 360.285 110.774 L 376.42 70.089 L 375.998 69.922 Z M 359.863 110.606 L 359.863 110.153 L 348.515 110.153 L 348.515 110.606 L 348.515 111.06 L 359.863 111.06 L 359.863 110.606 Z M 348.515 110.606 L 348.941 110.452 L 339.6 84.668 L 339.174 84.822 L 338.747 84.977 L 348.088 110.761 L 348.515 110.606 Z M 339.174 84.822 L 338.747 84.668 L 329.407 110.452 L 329.833 110.606 L 330.259 110.761 L 339.6 84.977 L 339.174 84.822 Z M 329.833 110.606 L 329.833 110.153 L 318.484 110.153 L 318.484 110.606 L 318.484 111.06 L 329.833 111.06 L 329.833 110.606 Z M 318.484 110.606 L 318.906 110.439 L 302.771 69.755 L 302.35 69.922 L 301.928 70.089 L 318.063 110.774 L 318.484 110.606 Z M 302.35 69.922 L 302.35 70.375 L 315.628 70.375 L 315.628 69.922 L 315.628 69.468 L 302.35 69.468 L 302.35 69.922 Z M 315.628 69.922 L 315.202 70.077 L 324.62 95.939 L 325.046 95.784 L 325.472 95.629 L 316.054 69.767 L 315.628 69.922 Z M 507.492 69.691 L 507.492 70.145 C 509.304 70.145 510.662 70.37 511.886 70.6 L 511.97 70.154 L 512.053 69.709 C 510.808 69.475 509.386 69.238 507.492 69.238 L 507.492 69.691 Z M 511.97 70.154 L 511.516 70.154 L 511.516 82.12 L 511.97 82.12 L 512.423 82.12 L 512.423 70.154 L 511.97 70.154 Z M 511.97 82.12 L 512.044 81.673 C 510.204 81.366 509.236 81.127 507.029 81.127 L 507.029 81.58 L 507.029 82.034 C 509.145 82.034 510.03 82.257 511.895 82.567 L 511.97 82.12 Z M 507.029 81.58 L 507.029 81.127 C 502.697 81.127 498.933 81.983 496.243 84.058 C 493.533 86.149 491.985 89.422 491.985 94.086 L 492.438 94.086 L 492.892 94.086 C 492.892 89.64 494.355 86.66 496.797 84.776 C 499.261 82.875 502.793 82.034 507.029 82.034 L 507.029 81.58 Z M 492.438 94.086 L 491.985 94.086 L 491.985 110.606 L 492.438 110.606 L 492.892 110.606 L 492.892 94.086 L 492.438 94.086 Z M 492.438 110.606 L 492.438 110.153 L 480.086 110.153 L 480.086 110.606 L 480.086 111.06 L 492.438 111.06 L 492.438 110.606 Z M 480.086 110.606 L 480.539 110.606 L 480.539 69.923 L 480.086 69.923 L 479.632 69.923 L 479.632 110.606 L 480.086 110.606 Z M 480.086 69.923 L 480.086 70.376 L 492.438 70.376 L 492.438 69.923 L 492.438 69.469 L 480.086 69.469 L 480.086 69.923 Z M 492.438 69.923 L 491.985 69.923 L 491.985 76.948 L 492.438 76.948 L 492.892 76.948 L 492.892 69.923 L 492.438 69.923 Z M 492.438 76.948 L 492.812 77.205 C 494.547 74.678 496.59 72.921 499 71.791 C 501.413 70.659 504.219 70.145 507.492 70.145 L 507.492 69.691 L 507.492 69.238 C 504.126 69.238 501.181 69.766 498.615 70.97 C 496.045 72.175 493.881 74.046 492.065 76.692 L 492.438 76.948 Z M 228.27 79.032 L 228.27 78.579 C 220.98 78.579 215.233 83.355 215.233 90.071 L 215.687 90.071 L 216.14 90.071 C 216.14 83.973 221.355 79.486 228.27 79.486 L 228.27 79.032 Z M 215.687 90.071 L 215.233 90.071 L 215.233 90.535 L 215.687 90.535 L 216.14 90.535 L 216.14 90.071 L 215.687 90.071 Z M 215.687 90.535 L 215.233 90.535 C 215.233 97.255 220.984 101.95 228.27 101.951 L 228.27 101.497 L 228.27 101.044 C 221.351 101.044 216.14 96.63 216.14 90.535 L 215.687 90.535 Z M 228.27 101.497 L 228.27 101.951 C 231.749 101.951 234.985 100.942 237.36 98.97 C 239.745 96.99 241.23 94.063 241.23 90.304 L 240.776 90.304 L 240.323 90.304 C 240.323 93.801 238.951 96.47 236.781 98.273 C 234.6 100.083 231.583 101.044 228.27 101.044 L 228.27 101.497 Z M 240.776 90.304 L 241.23 90.304 C 241.23 86.545 239.745 83.599 237.362 81.599 C 234.988 79.607 231.752 78.579 228.27 78.579 L 228.27 79.032 L 228.27 79.486 C 231.581 79.486 234.598 80.464 236.779 82.294 C 238.951 84.116 240.323 86.806 240.323 90.304 L 240.776 90.304 Z M 398.697 79.032 L 398.697 78.579 C 395.215 78.579 391.979 79.607 389.605 81.599 C 387.223 83.598 385.738 86.544 385.738 90.303 L 386.191 90.303 L 386.645 90.303 C 386.645 86.805 388.017 84.116 390.188 82.294 C 392.369 80.464 395.386 79.486 398.697 79.486 L 398.697 79.032 Z M 386.191 90.303 L 385.738 90.303 C 385.738 94.062 387.223 96.99 389.607 98.97 C 391.982 100.942 395.217 101.95 398.697 101.951 L 398.697 101.497 L 398.697 101.044 C 395.384 101.044 392.367 100.083 390.187 98.272 C 388.016 96.47 386.645 93.8 386.645 90.303 L 386.191 90.303 Z M 398.697 101.497 L 398.697 101.951 C 405.983 101.951 411.734 97.255 411.735 90.535 L 411.281 90.535 L 410.828 90.535 C 410.828 96.63 405.616 101.044 398.697 101.044 L 398.697 101.497 Z M 411.281 90.535 L 411.735 90.535 L 411.735 90.071 L 411.281 90.071 L 410.828 90.071 L 410.828 90.535 L 411.281 90.535 Z M 411.281 90.071 L 411.735 90.071 C 411.735 83.355 405.987 78.579 398.697 78.579 L 398.697 79.032 L 398.697 79.486 C 405.612 79.486 410.828 83.973 410.828 90.071 L 411.281 90.071 Z M 279.911 79.187 L 279.911 78.733 C 276.464 78.733 273.304 79.783 270.998 81.767 C 268.685 83.757 267.26 86.663 267.26 90.304 L 267.714 90.304 L 268.167 90.304 C 268.167 86.919 269.483 84.267 271.59 82.455 C 273.704 80.636 276.642 79.64 279.911 79.64 L 279.911 79.187 Z M 267.714 90.304 L 267.26 90.304 C 267.26 93.981 268.684 96.888 270.999 98.87 C 273.306 100.844 276.466 101.873 279.911 101.873 L 279.911 101.42 L 279.911 100.966 C 276.64 100.966 273.702 99.989 271.589 98.181 C 269.484 96.379 268.167 93.728 268.167 90.304 L 267.714 90.304 Z M 279.911 101.42 L 279.911 101.873 C 283.394 101.873 286.573 100.844 288.89 98.87 C 291.216 96.889 292.64 93.982 292.64 90.304 L 292.187 90.304 L 291.733 90.304 C 291.733 93.728 290.416 96.379 288.302 98.18 C 286.18 99.988 283.222 100.966 279.911 100.966 L 279.911 101.42 Z M 292.187 90.304 L 292.64 90.304 C 292.64 86.663 291.215 83.756 288.891 81.766 C 286.575 79.783 283.396 78.733 279.911 78.733 L 279.911 79.187 L 279.911 79.64 C 283.22 79.64 286.178 80.636 288.301 82.455 C 290.417 84.267 291.733 86.919 291.733 90.304 L 292.187 90.304 Z M 451.97 78.646 L 451.97 78.193 C 446.435 78.193 441.589 80.733 439.808 85.752 L 440.235 85.903 L 440.663 86.055 C 442.279 81.501 446.696 79.1 451.97 79.1 L 451.97 78.646 Z M 440.235 85.903 L 440.235 86.357 L 463.009 86.357 L 463.009 85.903 L 463.009 85.45 L 440.235 85.45 L 440.235 85.903 Z M 463.009 85.903 L 463.457 85.832 C 462.873 82.162 458.619 78.193 451.97 78.193 L 451.97 78.646 L 451.97 79.1 C 458.29 79.1 462.064 82.851 462.561 85.975 L 463.009 85.903 Z M 222.712 13.351 L 222.712 13.804 C 232.2 13.804 239.718 16.866 243.704 20.702 L 244.019 20.375 L 244.333 20.048 C 240.136 16.01 232.369 12.897 222.712 12.897 L 222.712 13.351 Z M 244.019 20.375 L 243.676 20.078 L 237.268 27.49 L 237.611 27.786 L 237.954 28.083 L 244.362 20.672 L 244.019 20.375 Z M 237.611 27.786 L 237.918 27.452 C 234.111 23.963 228.511 22.006 222.094 22.006 L 222.094 22.46 L 222.094 22.913 C 228.337 22.913 233.7 24.816 237.305 28.12 L 237.611 27.786 Z M 222.094 22.46 L 222.094 22.006 C 219.442 22.007 217.363 22.336 215.93 22.961 C 214.492 23.588 213.612 24.562 213.612 25.856 L 214.065 25.856 L 214.519 25.856 C 214.519 25.067 215.029 24.343 216.292 23.792 C 217.561 23.24 219.496 22.913 222.094 22.913 L 222.094 22.46 Z M 214.065 25.856 L 213.612 25.856 C 213.612 26.524 213.821 27.088 214.322 27.539 C 214.795 27.966 215.494 28.258 216.402 28.495 C 218.218 28.969 221.139 29.281 225.517 29.781 L 225.568 29.33 L 225.62 28.88 C 221.197 28.375 218.367 28.07 216.631 27.618 C 215.764 27.391 215.237 27.144 214.929 26.866 C 214.648 26.612 214.519 26.308 214.519 25.856 L 214.065 25.856 Z M 225.568 29.33 L 225.515 29.78 C 230.736 30.399 235.542 31.147 239.042 32.864 C 240.783 33.718 242.178 34.802 243.139 36.209 C 244.098 37.612 244.646 39.368 244.646 41.605 L 245.1 41.605 L 245.553 41.605 C 245.553 39.211 244.963 37.271 243.888 35.697 C 242.815 34.127 241.281 32.952 239.442 32.05 C 235.782 30.254 230.823 29.496 225.622 28.88 L 225.568 29.33 Z M 245.1 41.605 L 244.646 41.605 C 244.646 46.169 242.36 49.563 238.491 51.839 C 234.601 54.128 229.113 55.279 222.789 55.279 L 222.789 55.732 L 222.789 56.186 C 229.203 56.186 234.87 55.021 238.951 52.621 C 243.053 50.207 245.553 46.538 245.553 41.605 L 245.1 41.605 Z M 222.789 55.732 L 222.789 55.279 C 213.43 55.279 204.541 52.513 199.952 47.849 L 199.629 48.167 L 199.306 48.485 C 204.135 53.394 213.311 56.186 222.789 56.186 L 222.789 55.732 Z M 199.629 48.167 L 199.999 48.43 L 205.866 40.17 L 205.496 39.907 L 205.126 39.645 L 199.259 47.904 L 199.629 48.167 Z M 205.496 39.907 L 205.189 40.241 C 210.15 44.808 216.674 46.999 223.716 46.999 L 223.716 46.546 L 223.716 46.092 C 216.862 46.092 210.57 43.962 205.803 39.574 L 205.496 39.907 Z M 223.716 46.546 L 223.716 46.999 C 226.512 46.999 228.817 46.729 230.439 46.111 C 231.253 45.801 231.923 45.392 232.393 44.859 C 232.871 44.318 233.124 43.666 233.124 42.918 L 232.671 42.918 L 232.217 42.918 C 232.217 43.443 232.046 43.882 231.713 44.259 C 231.372 44.646 230.846 44.985 230.116 45.263 C 228.65 45.822 226.478 46.092 223.716 46.092 L 223.716 46.546 Z M 232.671 42.918 L 233.124 42.918 C 233.124 42.11 232.825 41.47 232.206 40.983 C 231.619 40.521 230.769 40.216 229.702 39.976 C 227.567 39.496 224.278 39.221 219.755 38.684 L 219.701 39.135 L 219.648 39.585 C 224.234 40.129 227.429 40.395 229.503 40.861 C 230.538 41.094 231.223 41.363 231.645 41.695 C 232.035 42.002 232.217 42.375 232.217 42.918 L 232.671 42.918 Z M 219.701 39.135 L 219.758 38.685 C 214.889 38.067 210.51 37.282 207.35 35.598 C 205.78 34.762 204.529 33.712 203.669 32.366 C 202.81 31.022 202.322 29.354 202.322 27.246 L 201.868 27.246 L 201.415 27.246 C 201.415 29.5 201.939 31.344 202.905 32.854 C 203.868 34.362 205.252 35.508 206.924 36.399 C 210.249 38.17 214.786 38.968 219.644 39.585 L 219.701 39.135 Z M 201.868 27.246 L 202.322 27.246 C 202.322 23.242 204.222 19.903 207.709 17.548 C 211.211 15.182 216.324 13.804 222.712 13.804 L 222.712 13.351 L 222.712 12.897 C 216.208 12.897 210.899 14.298 207.202 16.796 C 203.49 19.304 201.415 22.912 201.415 27.246 L 201.868 27.246 Z M 260.755 35.043 L 260.301 35.043 C 260.301 38.35 261.089 40.988 262.757 42.8 C 264.431 44.619 266.925 45.533 270.174 45.533 L 270.174 45.079 L 270.174 44.626 C 267.093 44.626 264.876 43.763 263.424 42.186 C 261.966 40.601 261.208 38.221 261.208 35.043 L 260.755 35.043 Z M 270.174 45.079 L 270.174 45.533 C 273.581 45.533 276.298 44.54 278.161 42.626 C 280.022 40.713 280.972 37.942 280.972 34.503 L 280.519 34.503 L 280.065 34.503 C 280.065 37.78 279.162 40.297 277.511 41.993 C 275.861 43.688 273.406 44.626 270.174 44.626 L 270.174 45.079 Z M 280.519 34.503 L 280.972 34.503 L 280.972 14.199 L 280.519 14.199 L 280.065 14.199 L 280.065 34.503 L 280.519 34.503 Z M 280.519 14.199 L 280.519 14.653 L 292.87 14.653 L 292.87 14.199 L 292.87 13.746 L 280.519 13.746 L 280.519 14.199 Z M 292.87 14.199 L 292.417 14.199 L 292.417 54.884 L 292.87 54.884 L 293.324 54.884 L 293.324 14.199 L 292.87 14.199 Z M 292.87 54.884 L 292.87 54.43 L 280.519 54.43 L 280.519 54.884 L 280.519 55.337 L 292.87 55.337 L 292.87 54.884 Z M 280.519 54.884 L 280.972 54.884 L 280.972 50.021 L 280.519 50.021 L 280.065 50.021 L 280.065 54.884 L 280.519 54.884 Z M 280.519 50.021 L 280.187 49.712 C 277.191 52.932 272.451 55.279 266.005 55.279 L 266.005 55.732 L 266.005 56.186 C 272.683 56.186 277.67 53.748 280.851 50.329 L 280.519 50.021 Z M 266.005 55.732 L 266.005 55.279 C 260.895 55.279 256.618 53.597 253.618 50.569 C 250.618 47.542 248.857 43.128 248.857 37.591 L 248.403 37.591 L 247.95 37.591 C 247.95 43.324 249.778 47.982 252.974 51.207 C 256.169 54.433 260.692 56.186 266.005 56.186 L 266.005 55.732 Z M 248.403 37.591 L 248.857 37.591 L 248.857 14.199 L 248.403 14.199 L 247.95 14.199 L 247.95 37.591 L 248.403 37.591 Z M 248.403 14.199 L 248.403 14.653 L 260.755 14.653 L 260.755 14.199 L 260.755 13.746 L 248.403 13.746 L 248.403 14.199 Z M 260.755 14.199 L 260.301 14.199 L 260.301 35.043 L 260.755 35.043 L 261.208 35.043 L 261.208 14.199 L 260.755 14.199 Z M 326.905 13.351 L 326.905 13.804 C 332.089 13.804 336.405 15.542 339.425 18.628 C 342.446 21.713 344.208 26.186 344.208 31.724 L 344.661 31.724 L 345.115 31.724 C 345.115 25.99 343.287 21.276 340.073 17.993 C 336.859 14.71 332.297 12.897 326.905 12.897 L 326.905 13.351 Z M 344.661 31.724 L 344.208 31.724 L 344.208 54.884 L 344.661 54.884 L 345.115 54.884 L 345.115 31.724 L 344.661 31.724 Z M 344.661 54.884 L 344.661 54.43 L 332.31 54.43 L 332.31 54.884 L 332.31 55.337 L 344.661 55.337 L 344.661 54.884 Z M 332.31 54.884 L 332.763 54.884 L 332.763 35.353 L 332.31 35.353 L 331.856 35.353 L 331.856 54.884 L 332.31 54.884 Z M 332.31 35.353 L 332.763 35.353 C 332.763 31.851 331.917 28.972 330.203 26.962 C 328.48 24.941 325.93 23.859 322.659 23.859 L 322.659 24.313 L 322.659 24.766 C 325.719 24.766 327.994 25.769 329.513 27.55 C 331.042 29.343 331.856 31.984 331.856 35.353 L 332.31 35.353 Z M 322.659 24.313 L 322.659 23.859 C 319.208 23.859 316.433 24.913 314.524 26.925 C 312.618 28.933 311.63 31.837 311.63 35.43 L 312.083 35.43 L 312.536 35.43 C 312.536 31.998 313.479 29.343 315.181 27.549 C 316.881 25.758 319.395 24.766 322.659 24.766 L 322.659 24.313 Z M 312.083 35.43 L 311.63 35.43 L 311.63 54.884 L 312.083 54.884 L 312.536 54.884 L 312.536 35.43 L 312.083 35.43 Z M 312.083 54.884 L 312.083 54.43 L 299.731 54.43 L 299.731 54.884 L 299.731 55.337 L 312.083 55.337 L 312.083 54.884 Z M 299.731 54.884 L 300.185 54.884 L 300.185 14.199 L 299.731 14.199 L 299.278 14.199 L 299.278 54.884 L 299.731 54.884 Z M 299.731 14.199 L 299.731 14.653 L 312.083 14.653 L 312.083 14.199 L 312.083 13.746 L 299.731 13.746 L 299.731 14.199 Z M 312.083 14.199 L 311.63 14.199 L 311.63 19.141 L 312.083 19.141 L 312.536 19.141 L 312.536 14.199 L 312.083 14.199 Z M 312.083 19.141 L 312.411 19.454 C 315.486 16.229 320.46 13.804 326.905 13.804 L 326.905 13.351 L 326.905 12.897 C 320.227 12.897 315.011 15.413 311.755 18.828 L 312.083 19.141 Z" fill="currentColor" fill-rule="nonzero"/>
</svg>
